<svg xmlns="http://www.w3.org/2000/svg" width="3464" height="3464" viewBox="0 0 3464 3464" version="1.1"><path d="M 3031.468 1674 C 3031.468 1705.075, 3031.594 1717.788, 3031.749 1702.250 C 3031.904 1686.713, 3031.904 1661.288, 3031.749 1645.750 C 3031.594 1630.213, 3031.468 1642.925, 3031.468 1674 M 928.186 2440.748 C 937.363 2440.913, 952.663 2440.913, 962.186 2440.749 C 971.709 2440.584, 964.200 2440.449, 945.500 2440.449 C 926.800 2440.449, 919.009 2440.583, 928.186 2440.748 M 2265.186 2440.748 C 2274.363 2440.913, 2289.663 2440.913, 2299.186 2440.749 C 2308.709 2440.584, 2301.200 2440.449, 2282.500 2440.449 C 2263.800 2440.449, 2256.009 2440.583, 2265.186 2440.748" stroke="none" fill="#ec143c" fill-rule="evenodd"/><path d="M 826.657 1025.887 C 821.558 1029.249, 811 1047.071, 811 1052.316 C 811 1053.177, 810.581 1054.141, 810.068 1054.458 C 809.555 1054.775, 808.581 1057.614, 807.903 1060.767 C 807.224 1063.920, 806.346 1066.950, 805.951 1067.500 C 805.556 1068.050, 804.686 1071.875, 804.018 1076 C 803.350 1080.125, 802.415 1084.400, 801.939 1085.500 C 801.463 1086.600, 800.357 1092, 799.481 1097.500 C 798.605 1103, 796.992 1113.125, 795.897 1120 C 793.325 1136.150, 790.425 1156.386, 788.517 1171.500 C 787.684 1178.100, 786.567 1185.525, 786.034 1188 C 785.502 1190.475, 784.800 1195.200, 784.474 1198.500 C 783.853 1204.785, 781.925 1216.328, 779.379 1229 C 778.550 1233.125, 777.279 1240.325, 776.554 1245 C 774.386 1258.978, 772.090 1272.215, 771.003 1277 C 770.441 1279.475, 769.313 1285.550, 768.496 1290.500 C 767.110 1298.901, 765.978 1305.302, 761.155 1332 C 760.112 1337.775, 758.955 1343.625, 758.585 1345 C 758.214 1346.375, 757.265 1351.325, 756.476 1356 C 755.687 1360.675, 754.106 1369.225, 752.962 1375 C 751.819 1380.775, 750.088 1389.775, 749.117 1395 C 748.146 1400.225, 747.070 1405.175, 746.726 1406 C 746.382 1406.825, 745.409 1411.550, 744.563 1416.500 C 743.098 1425.078, 741.414 1433.822, 737.148 1455 C 734.579 1467.759, 731.125 1485.044, 729.556 1493 C 725.923 1511.425, 724.782 1517.055, 723.478 1523 C 722.034 1529.581, 721.065 1534.502, 718.126 1550.169 C 717.232 1554.937, 716.205 1559.131, 715.845 1559.490 C 715.485 1559.849, 714.871 1558.648, 714.480 1556.822 C 714.089 1554.995, 713.450 1553.050, 713.060 1552.500 C 712.669 1551.950, 711.801 1549.475, 711.129 1547 C 710.457 1544.525, 709.507 1541.600, 709.016 1540.500 C 708.526 1539.400, 703.129 1523.425, 697.024 1505 C 690.919 1486.575, 685.532 1470.600, 685.053 1469.500 C 683.958 1466.982, 681.303 1458.929, 679.561 1452.839 C 678.828 1450.275, 677.900 1447.648, 677.500 1447 C 677.100 1446.352, 676.172 1443.725, 675.439 1441.161 C 673.674 1434.992, 671.031 1426.987, 669.937 1424.500 C 669.454 1423.400, 664.982 1410.125, 660 1395 C 655.018 1379.875, 650.526 1366.600, 650.017 1365.500 C 649.508 1364.400, 648.543 1361.475, 647.871 1359 C 647.199 1356.525, 646.341 1354.050, 645.963 1353.500 C 645.585 1352.950, 644.954 1351.150, 644.561 1349.500 C 644.168 1347.850, 643.247 1345.150, 642.515 1343.500 C 641.783 1341.850, 639.795 1336.450, 638.097 1331.500 C 633.278 1317.447, 625.946 1297.599, 620.551 1284 C 618.696 1279.325, 615.962 1272.371, 614.476 1268.547 C 612.990 1264.723, 611.188 1260.223, 610.472 1258.547 C 609.756 1256.871, 608.181 1253.025, 606.973 1250 C 605.764 1246.975, 603.926 1242.612, 602.888 1240.305 C 601.849 1237.998, 601 1235.816, 601 1235.456 C 601 1235.096, 600.265 1233.159, 599.367 1231.151 C 598.470 1229.143, 596.929 1225.700, 595.943 1223.500 C 594.958 1221.300, 592.950 1216.575, 591.481 1213 C 590.011 1209.425, 588.118 1204.925, 587.272 1203 C 586.427 1201.075, 584.851 1197.475, 583.771 1195 C 582.691 1192.525, 579.367 1185.492, 576.385 1179.371 C 557.824 1141.270, 534.672 1121.727, 502.267 1116.805 C 492.041 1115.252, 464.051 1115.293, 456.822 1116.872 C 451.530 1118.027, 443.140 1121.443, 442 1122.905 C 441.725 1123.258, 440.225 1124.358, 438.666 1125.351 C 431.276 1130.058, 431.201 1142.924, 438.409 1169.500 C 439.303 1172.800, 440.478 1176.281, 441.018 1177.236 C 441.558 1178.191, 442 1179.668, 442 1180.518 C 442 1181.368, 442.839 1184.636, 443.864 1187.782 C 444.890 1190.927, 446.958 1197.550, 448.461 1202.500 C 453.020 1217.516, 455.119 1224.307, 456.499 1228.500 C 457.223 1230.700, 459.030 1236.550, 460.514 1241.500 C 461.998 1246.450, 463.839 1251.918, 464.606 1253.651 C 465.373 1255.384, 466 1257.296, 466 1257.900 C 466 1259.095, 494.441 1345.231, 495.915 1348.500 C 496.411 1349.600, 497.451 1352.525, 498.226 1355 C 501.428 1365.226, 518.256 1414.726, 519.473 1417.500 C 520.197 1419.150, 521.119 1422.060, 521.522 1423.967 C 521.925 1425.874, 522.643 1428.124, 523.118 1428.967 C 523.594 1429.810, 526.249 1437.475, 529.020 1446 C 531.790 1454.525, 534.475 1462.400, 534.987 1463.500 C 535.498 1464.600, 536.429 1467.525, 537.056 1470 C 537.683 1472.475, 538.537 1474.950, 538.953 1475.500 C 539.370 1476.050, 540.260 1478.744, 540.930 1481.487 C 541.600 1484.229, 542.513 1486.929, 542.959 1487.487 C 543.404 1488.044, 544.093 1490.075, 544.490 1492 C 544.887 1493.925, 545.800 1496.850, 546.521 1498.500 C 547.681 1501.156, 559.954 1537.141, 563.745 1549 C 564.536 1551.475, 565.574 1554.400, 566.053 1555.500 C 566.883 1557.410, 574.113 1578.551, 581.614 1601 C 583.543 1606.775, 585.511 1612.400, 585.986 1613.500 C 586.461 1614.600, 588.254 1619.775, 589.971 1625 C 591.688 1630.225, 593.503 1635.400, 594.005 1636.500 C 594.506 1637.600, 595.431 1640.525, 596.060 1643 C 596.688 1645.475, 597.479 1647.950, 597.818 1648.500 C 598.629 1649.820, 607.038 1674.576, 623.121 1723 C 630.336 1744.725, 636.615 1763.400, 637.074 1764.500 C 637.532 1765.600, 638.457 1768.525, 639.129 1771 C 639.801 1773.475, 640.669 1775.950, 641.060 1776.500 C 641.450 1777.050, 642.093 1779.075, 642.490 1781 C 642.887 1782.925, 643.781 1785.850, 644.478 1787.500 C 645.175 1789.150, 647.648 1796.440, 649.974 1803.699 C 654.119 1816.633, 654.174 1816.985, 652.693 1821.199 C 650.172 1828.376, 647.202 1838.297, 646.465 1842 C 646.082 1843.925, 645.430 1845.950, 645.015 1846.500 C 644.601 1847.050, 643.683 1849.975, 642.976 1853 C 642.269 1856.025, 641.346 1859.175, 640.924 1860 C 640.502 1860.825, 638.729 1866.225, 636.983 1872 C 635.237 1877.775, 633.442 1883.400, 632.994 1884.500 C 631.806 1887.418, 626.990 1903.353, 626.996 1904.349 C 626.998 1904.816, 626.381 1906.616, 625.625 1908.349 C 624.869 1910.082, 621.878 1918.700, 618.979 1927.500 C 612.843 1946.125, 611.651 1949.554, 605.947 1965 C 603.612 1971.325, 600.961 1978.525, 600.057 1981 C 599.152 1983.475, 597.869 1986.483, 597.206 1987.684 C 596.543 1988.886, 595.985 1990.461, 595.966 1991.184 C 595.947 1991.908, 595.063 1994.300, 594 1996.500 C 592.937 1998.700, 592.053 2000.865, 592.034 2001.312 C 592.015 2001.758, 590.831 2004.683, 589.402 2007.812 C 584.899 2017.672, 584 2019.783, 584 2020.500 C 584 2020.884, 583.359 2022.616, 582.576 2024.349 C 581.793 2026.082, 579.733 2030.875, 577.999 2035 C 576.264 2039.125, 573.915 2044.525, 572.778 2047 C 571.641 2049.475, 569.607 2053.975, 568.258 2057 C 566.909 2060.025, 564.461 2065.425, 562.818 2069 C 561.175 2072.575, 559.014 2077.300, 558.015 2079.500 C 554.660 2086.892, 545.570 2106.309, 528.990 2141.500 C 526.917 2145.900, 524.084 2151.975, 522.695 2155 C 521.306 2158.025, 517.881 2165.376, 515.085 2171.336 C 512.288 2177.296, 510 2182.322, 510 2182.505 C 510 2182.688, 508.036 2187.037, 505.636 2192.169 C 499.394 2205.515, 496.527 2211.736, 493.735 2218 C 492.386 2221.025, 489.816 2226.650, 488.023 2230.500 C 486.231 2234.350, 483.638 2239.975, 482.263 2243 C 480.887 2246.025, 478.069 2252.100, 476 2256.500 C 472.068 2264.864, 468.086 2273.552, 464.888 2280.750 C 463.850 2283.088, 462.100 2287.025, 461 2289.500 C 459.900 2291.975, 458.134 2295.912, 457.076 2298.250 C 456.018 2300.588, 453.965 2305.425, 452.513 2309 C 451.062 2312.575, 449.228 2316.918, 448.438 2318.651 C 447.647 2320.384, 446.997 2322.184, 446.994 2322.651 C 446.990 2323.118, 446.377 2324.671, 445.630 2326.102 C 444.884 2327.532, 442.810 2332.928, 441.022 2338.093 C 435.146 2355.064, 437.551 2365.622, 451.141 2382.515 C 460.703 2394.402, 475.607 2406.442, 490.500 2414.313 C 498.335 2418.454, 506.541 2422, 508.287 2422 C 509.164 2422, 510.135 2422.409, 510.444 2422.910 C 511.535 2424.674, 524.674 2426.239, 535.033 2425.838 C 547.844 2425.343, 552.915 2423.158, 560.188 2415.003 C 570.639 2403.283, 584.529 2379.457, 595.751 2354 C 596.842 2351.525, 598.470 2347.857, 599.367 2345.849 C 600.265 2343.841, 601.015 2341.816, 601.034 2341.349 C 601.053 2340.882, 601.937 2338.700, 603 2336.500 C 604.063 2334.300, 604.947 2332.118, 604.966 2331.651 C 604.985 2331.184, 605.641 2329.384, 606.424 2327.651 C 607.207 2325.918, 609.274 2321.125, 611.018 2317 C 612.761 2312.875, 615.721 2306.220, 617.594 2302.212 C 619.467 2298.203, 621 2294.742, 621 2294.521 C 621 2294.299, 622.840 2290.154, 625.089 2285.309 C 629.129 2276.608, 631.200 2272.051, 634.888 2263.750 C 635.927 2261.412, 638.117 2256.575, 639.756 2253 C 645.454 2240.565, 649 2232.158, 649 2231.082 C 649 2230.487, 649.450 2230, 650 2230 C 650.550 2230, 651 2229.545, 651 2228.989 C 651 2228.433, 651.959 2225.846, 653.130 2223.239 C 654.302 2220.633, 656.102 2216.588, 657.130 2214.250 C 659.514 2208.833, 662.476 2202.166, 664.908 2196.750 C 665.957 2194.412, 671.611 2181.475, 677.472 2168 C 683.333 2154.525, 688.502 2142.793, 688.960 2141.929 C 689.418 2141.066, 691.023 2137.241, 692.526 2133.429 C 694.030 2129.618, 696.326 2124.207, 697.630 2121.404 C 698.933 2118.600, 700 2115.824, 700 2115.235 C 700 2114.645, 700.669 2112.888, 701.487 2111.331 C 703.567 2107.369, 706.999 2099.270, 707.006 2098.305 C 707.010 2097.862, 707.635 2096.306, 708.397 2094.847 C 709.158 2093.387, 710.339 2090.462, 711.021 2088.347 C 711.703 2086.231, 712.593 2084.050, 713 2083.500 C 713.407 2082.950, 714.307 2080.700, 715 2078.500 C 715.693 2076.300, 716.593 2074.050, 717 2073.500 C 717.407 2072.950, 718.307 2070.700, 719 2068.500 C 719.693 2066.300, 720.593 2064.050, 721 2063.500 C 721.407 2062.950, 722.307 2060.700, 723 2058.500 C 723.693 2056.300, 724.608 2054.050, 725.033 2053.500 C 725.457 2052.950, 726.331 2050.530, 726.975 2048.123 C 727.630 2045.675, 728.521 2044.132, 728.998 2044.623 C 729.466 2045.105, 731.698 2051.125, 733.956 2058 C 736.215 2064.875, 738.480 2071.400, 738.990 2072.500 C 739.500 2073.600, 740.429 2076.525, 741.056 2079 C 741.683 2081.475, 742.537 2083.950, 742.953 2084.500 C 743.370 2085.050, 744.260 2087.744, 744.930 2090.487 C 745.600 2093.229, 746.500 2095.929, 746.930 2096.487 C 747.360 2097.044, 748.260 2099.744, 748.930 2102.487 C 749.600 2105.229, 750.500 2107.929, 750.930 2108.487 C 751.360 2109.044, 752.260 2111.744, 752.930 2114.487 C 753.600 2117.229, 754.495 2119.929, 754.919 2120.487 C 755.343 2121.044, 756.279 2123.750, 757 2126.500 C 757.721 2129.250, 758.626 2131.950, 759.011 2132.500 C 759.396 2133.050, 760.260 2135.744, 760.930 2138.487 C 761.600 2141.229, 762.513 2143.929, 762.959 2144.487 C 763.404 2145.044, 764.093 2147.075, 764.490 2149 C 764.887 2150.925, 765.782 2153.850, 766.479 2155.500 C 767.177 2157.150, 771.660 2170.650, 776.442 2185.500 C 781.224 2200.350, 785.721 2213.852, 786.435 2215.504 C 787.149 2217.156, 788.070 2220.081, 788.482 2222.004 C 788.894 2223.927, 789.596 2225.956, 790.041 2226.513 C 790.487 2227.071, 791.414 2229.758, 792.101 2232.486 C 792.788 2235.213, 793.943 2238.582, 794.669 2239.973 C 795.394 2241.363, 795.993 2243.175, 796 2244 C 796.007 2244.825, 796.615 2246.655, 797.352 2248.067 C 798.088 2249.478, 799.020 2251.953, 799.423 2253.567 C 799.825 2255.180, 800.756 2257.850, 801.491 2259.500 C 802.226 2261.150, 803.375 2264.300, 804.044 2266.500 C 804.713 2268.700, 805.590 2270.950, 805.992 2271.500 C 806.395 2272.050, 807.044 2273.834, 807.435 2275.465 C 807.826 2277.096, 809.013 2280.334, 810.073 2282.660 C 811.133 2284.987, 812 2287.217, 812 2287.617 C 812 2288.448, 816.434 2299.944, 818.570 2304.651 C 819.356 2306.384, 820 2308.096, 820 2308.456 C 820 2308.816, 820.842 2310.998, 821.870 2313.305 C 822.899 2315.612, 824.983 2320.650, 826.502 2324.500 C 829.099 2331.085, 833.639 2341.775, 838.181 2352 C 839.281 2354.475, 840.549 2357.400, 841 2358.500 C 842.120 2361.231, 845.685 2369.266, 848.988 2376.500 C 850.495 2379.800, 852.415 2384.075, 853.254 2386 C 863.032 2408.420, 871.663 2421.117, 882.307 2428.738 C 889.667 2434.007, 891.427 2434.924, 899.355 2437.621 C 906.256 2439.968, 906.882 2440, 945.770 2440 C 983.295 2440, 985.533 2439.896, 992.345 2437.839 C 1008.256 2433.033, 1015.891 2424.478, 1016.743 2410.500 C 1017.462 2398.686, 1014.489 2386.077, 1007.547 2371.500 C 998.782 2353.096, 995.294 2345.552, 992.060 2338 C 988.855 2330.518, 987.281 2326.897, 984.562 2320.750 C 983.772 2318.963, 981.925 2314.575, 980.459 2311 C 978.993 2307.425, 976.939 2302.612, 975.896 2300.305 C 974.853 2297.998, 974 2295.816, 974 2295.456 C 974 2294.782, 973.061 2292.585, 968.598 2282.812 C 967.169 2279.683, 965.985 2276.758, 965.966 2276.312 C 965.947 2275.865, 965.063 2273.700, 964 2271.500 C 962.937 2269.300, 962.053 2267.138, 962.034 2266.695 C 962.015 2266.252, 961.156 2264.002, 960.124 2261.695 C 958.049 2257.054, 947.196 2229.808, 941.525 2215 C 939.523 2209.775, 937.297 2204.150, 936.578 2202.500 C 935.858 2200.850, 934.008 2195.900, 932.466 2191.500 C 930.924 2187.100, 929.347 2183.050, 928.961 2182.500 C 928.576 2181.950, 927.693 2179.700, 927 2177.500 C 926.307 2175.300, 925.410 2173.050, 925.008 2172.500 C 924.605 2171.950, 923.954 2170.150, 923.561 2168.500 C 923.168 2166.850, 922.226 2164.150, 921.468 2162.500 C 920.710 2160.850, 919.456 2157.700, 918.683 2155.500 C 915.414 2146.204, 909.914 2131.352, 909.054 2129.500 C 908.543 2128.400, 907.822 2126.375, 907.452 2125 C 907.081 2123.625, 906.194 2121.150, 905.481 2119.500 C 904.767 2117.850, 902.803 2112.450, 901.115 2107.500 C 899.427 2102.550, 896.908 2095.350, 895.518 2091.500 C 894.127 2087.650, 891.608 2080.450, 889.919 2075.500 C 888.231 2070.550, 886.454 2065.600, 885.971 2064.500 C 885.488 2063.400, 883.688 2058.225, 881.971 2053 C 880.254 2047.775, 878.454 2042.600, 877.971 2041.500 C 877.488 2040.400, 875.681 2035.225, 873.955 2030 C 872.229 2024.775, 870.183 2019.082, 869.408 2017.349 C 868.634 2015.616, 867.997 2013.591, 867.994 2012.849 C 867.990 2012.107, 867.358 2010.293, 866.588 2008.817 C 865.818 2007.342, 864.874 2004.642, 864.489 2002.817 C 864.104 2000.993, 863.203 1998.150, 862.486 1996.500 C 861.770 1994.850, 859.771 1989.225, 858.045 1984 C 856.319 1978.775, 854.519 1973.600, 854.045 1972.500 C 853.571 1971.400, 852.547 1968.475, 851.770 1966 C 848.532 1955.687, 831.730 1906.265, 830.522 1903.500 C 829.801 1901.850, 828.881 1898.940, 828.478 1897.033 C 828.075 1895.126, 827.357 1892.876, 826.881 1892.033 C 826.406 1891.190, 820.614 1874.133, 814.010 1854.130 C 802.095 1818.038, 802.013 1817.727, 803.387 1813.630 C 804.149 1811.358, 805.099 1807.475, 805.499 1805 C 805.899 1802.525, 806.577 1800.050, 807.005 1799.500 C 807.434 1798.950, 808.491 1795.350, 809.354 1791.500 C 810.218 1787.650, 811.879 1780.675, 813.045 1776 C 819.501 1750.131, 821.749 1740.727, 824.996 1726 C 826.028 1721.325, 827.841 1713.225, 829.026 1708 C 831.738 1696.045, 834.618 1682.550, 836.390 1673.500 C 837.144 1669.650, 838.509 1662.675, 839.423 1658 C 840.337 1653.325, 841.700 1646.800, 842.452 1643.500 C 843.203 1640.200, 844.115 1635.025, 844.478 1632 C 844.841 1628.975, 845.547 1625.150, 846.047 1623.500 C 846.546 1621.850, 847.685 1616, 848.576 1610.500 C 849.468 1605, 851.064 1595.550, 852.123 1589.500 C 853.182 1583.450, 854.964 1573.100, 856.083 1566.500 C 860.484 1540.536, 861.936 1532.051, 863.909 1520.747 C 865.037 1514.283, 866.860 1503.819, 867.960 1497.494 C 872.999 1468.517, 877.832 1441.213, 884.020 1406.750 C 885.131 1400.563, 886.711 1391.450, 887.532 1386.500 C 888.352 1381.550, 889.283 1376.825, 889.601 1376 C 889.919 1375.175, 890.798 1370.675, 891.555 1366 C 894.588 1347.268, 899.539 1319.634, 901.076 1312.859 C 901.655 1310.306, 902.767 1304.456, 903.547 1299.859 C 904.327 1295.261, 905.913 1286.775, 907.071 1281 C 908.230 1275.225, 909.987 1266.225, 910.976 1261 C 911.965 1255.775, 913.041 1250.825, 913.368 1250 C 913.695 1249.175, 914.640 1244.900, 915.470 1240.500 C 916.300 1236.100, 917.920 1228, 919.071 1222.500 C 920.222 1217, 921.821 1208, 922.625 1202.500 C 923.428 1197, 924.529 1190.925, 925.071 1189 C 926.007 1185.679, 928.144 1166.392, 930.001 1144.500 C 930.467 1139, 930.913 1123.903, 930.991 1110.950 C 931.130 1087.769, 931.090 1087.276, 928.416 1079.450 C 922.077 1060.896, 905.824 1042.950, 886.500 1033.167 C 883.200 1031.496, 876.243 1028.750, 871.041 1027.065 C 862.087 1024.164, 860.723 1024, 845.541 1024.007 C 831.543 1024.012, 829.138 1024.252, 826.657 1025.887 M 2161.760 1027.046 C 2158.084 1030.077, 2157.586 1030.778, 2153.200 1039.124 C 2145.411 1053.946, 2139.230 1077.386, 2134.380 1110.500 C 2133.574 1116, 2132.474 1122.075, 2131.935 1124 C 2131.395 1125.925, 2130.270 1132.900, 2129.433 1139.500 C 2127.960 1151.112, 2126.302 1163.135, 2122.125 1192.500 C 2120.090 1206.809, 2117.586 1221.958, 2114.027 1241.500 C 2112.925 1247.550, 2111.328 1256.775, 2110.478 1262 C 2109.628 1267.225, 2108.539 1273.075, 2108.058 1275 C 2107.576 1276.925, 2106.885 1280.750, 2106.522 1283.500 C 2106.158 1286.250, 2105.013 1293, 2103.977 1298.500 C 2102.940 1304, 2101.166 1313.675, 2100.035 1320 C 2098.903 1326.325, 2097.503 1333.589, 2096.924 1336.141 C 2096.345 1338.694, 2095.239 1344.544, 2094.466 1349.141 C 2092.459 1361.079, 2088.630 1380.851, 2079 1429 C 2077.900 1434.500, 2076.100 1443.500, 2075 1449 C 2073.900 1454.500, 2072.100 1463.500, 2071 1469 C 2069.900 1474.500, 2068.100 1483.500, 2067 1489 C 2065.900 1494.500, 2064.125 1503.388, 2063.055 1508.750 C 2061.986 1514.112, 2060.195 1523, 2059.077 1528.500 C 2057.958 1534, 2056.356 1542.100, 2055.517 1546.500 C 2052.704 1561.248, 2052.767 1561.168, 2050.130 1553.347 C 2048.860 1549.581, 2047.443 1545.600, 2046.980 1544.500 C 2046.518 1543.400, 2045.627 1540.700, 2045 1538.500 C 2044.373 1536.300, 2043.473 1533.600, 2043 1532.500 C 2042.527 1531.400, 2041.627 1528.700, 2041 1526.500 C 2040.373 1524.300, 2039.469 1521.600, 2038.990 1520.500 C 2038.512 1519.400, 2034.025 1506.125, 2029.020 1491 C 2024.014 1475.875, 2019.506 1462.600, 2019.001 1461.500 C 2018.497 1460.400, 2017.571 1457.475, 2016.944 1455 C 2016.317 1452.525, 2015.450 1450.050, 2015.018 1449.500 C 2014.585 1448.950, 2013.894 1446.927, 2013.482 1445.004 C 2013.070 1443.081, 2012.151 1440.156, 2011.441 1438.504 C 2010.177 1435.567, 2008.302 1430.042, 2005.500 1421 C 2003.082 1413.197, 2000.848 1406.571, 1999.937 1404.500 C 1999.454 1403.400, 1995.882 1392.825, 1992 1381 C 1988.118 1369.175, 1984.539 1358.600, 1984.046 1357.500 C 1983.554 1356.400, 1981.738 1351.225, 1980.012 1346 C 1978.285 1340.775, 1976.226 1335.082, 1975.436 1333.349 C 1974.646 1331.616, 1973.997 1329.591, 1973.994 1328.849 C 1973.990 1328.107, 1973.385 1326.345, 1972.648 1324.933 C 1971.912 1323.522, 1970.980 1321.047, 1970.577 1319.433 C 1970.175 1317.820, 1969.262 1315.150, 1968.549 1313.500 C 1967.835 1311.850, 1965.824 1306.675, 1964.080 1302 C 1962.335 1297.325, 1960.533 1292.600, 1960.075 1291.500 C 1959.616 1290.400, 1955.530 1280.050, 1950.993 1268.500 C 1946.457 1256.950, 1941.902 1245.612, 1940.872 1243.305 C 1939.843 1240.998, 1939 1238.816, 1939 1238.456 C 1939 1238.096, 1938.359 1236.384, 1937.576 1234.651 C 1936.793 1232.918, 1934.734 1228.125, 1933 1224 C 1931.266 1219.875, 1929.153 1214.925, 1928.305 1213 C 1927.457 1211.075, 1926.081 1207.925, 1925.249 1206 C 1922.757 1200.239, 1920.117 1194.257, 1918.076 1189.750 C 1917.018 1187.412, 1915.453 1183.925, 1914.598 1182 C 1903.562 1157.138, 1885.107 1135.321, 1867 1125.731 C 1849.230 1116.319, 1814.940 1112.388, 1792.532 1117.194 C 1784.859 1118.839, 1775.985 1123.997, 1772.128 1129.054 C 1768.764 1133.465, 1768.752 1133.517, 1769.297 1141.992 C 1769.598 1146.671, 1770.329 1151.850, 1770.921 1153.500 C 1771.513 1155.150, 1772.677 1159.200, 1773.508 1162.500 C 1776.477 1174.296, 1788.202 1214.111, 1789.999 1218.500 C 1790.449 1219.600, 1792.230 1225.225, 1793.955 1231 C 1795.681 1236.775, 1797.453 1242.175, 1797.892 1243 C 1798.331 1243.825, 1799.269 1246.975, 1799.976 1250 C 1800.683 1253.025, 1801.574 1255.950, 1801.956 1256.500 C 1802.338 1257.050, 1803.199 1259.525, 1803.871 1262 C 1804.543 1264.475, 1805.465 1267.400, 1805.920 1268.500 C 1806.375 1269.600, 1812.638 1288.275, 1819.837 1310 C 1836.103 1359.084, 1843.801 1381.910, 1844.963 1384.500 C 1845.457 1385.600, 1846.373 1388.300, 1847 1390.500 C 1847.627 1392.700, 1848.527 1395.400, 1849 1396.500 C 1849.473 1397.600, 1850.373 1400.300, 1851 1402.500 C 1851.627 1404.700, 1852.546 1407.400, 1853.044 1408.500 C 1853.542 1409.600, 1855.322 1414.775, 1857 1420 C 1858.678 1425.225, 1860.471 1430.400, 1860.984 1431.500 C 1861.497 1432.600, 1862.429 1435.525, 1863.056 1438 C 1863.683 1440.475, 1864.537 1442.950, 1864.953 1443.500 C 1865.370 1444.050, 1866.260 1446.744, 1866.930 1449.487 C 1867.600 1452.229, 1868.500 1454.929, 1868.930 1455.487 C 1869.360 1456.044, 1870.260 1458.744, 1870.930 1461.487 C 1871.600 1464.229, 1872.513 1466.929, 1872.959 1467.487 C 1873.404 1468.044, 1874.093 1470.075, 1874.490 1472 C 1874.887 1473.925, 1875.790 1476.850, 1876.498 1478.500 C 1877.206 1480.150, 1878.426 1483.525, 1879.210 1486 C 1882.382 1496.015, 1899.186 1545.637, 1900.036 1547.500 C 1900.538 1548.600, 1902.322 1553.775, 1904 1559 C 1905.678 1564.225, 1907.458 1569.400, 1907.956 1570.500 C 1908.454 1571.600, 1909.373 1574.300, 1910 1576.500 C 1910.627 1578.700, 1911.546 1581.400, 1912.044 1582.500 C 1912.542 1583.600, 1914.322 1588.775, 1916 1594 C 1917.678 1599.225, 1919.463 1604.400, 1919.965 1605.500 C 1920.468 1606.600, 1923.176 1614.475, 1925.983 1623 C 1928.789 1631.525, 1931.484 1639.400, 1931.971 1640.500 C 1932.840 1642.462, 1941.934 1669.147, 1944.751 1678 C 1945.539 1680.475, 1946.579 1683.400, 1947.063 1684.500 C 1947.546 1685.600, 1951.118 1696.175, 1955 1708 C 1958.882 1719.825, 1962.476 1730.400, 1962.987 1731.500 C 1963.498 1732.600, 1964.429 1735.525, 1965.056 1738 C 1965.683 1740.475, 1966.550 1742.950, 1966.982 1743.500 C 1967.415 1744.050, 1968.093 1746.075, 1968.490 1748 C 1968.887 1749.925, 1969.790 1752.850, 1970.498 1754.500 C 1971.206 1756.150, 1973.205 1762.225, 1974.939 1768 C 1976.674 1773.775, 1978.465 1779.190, 1978.919 1780.033 C 1979.374 1780.876, 1980.075 1783.126, 1980.478 1785.033 C 1980.881 1786.940, 1981.790 1789.850, 1982.498 1791.500 C 1983.206 1793.150, 1985.233 1799.166, 1987.002 1804.869 C 1990.502 1816.156, 1990.509 1818.426, 1987.075 1828.806 C 1982.661 1842.147, 1980 1851.248, 1980 1853.003 C 1980 1854.036, 1979.600 1855.129, 1979.111 1855.432 C 1978.622 1855.734, 1977.930 1857.223, 1977.574 1858.741 C 1976.471 1863.440, 1971.896 1878.419, 1971.082 1880 C 1970.657 1880.825, 1969.731 1883.975, 1969.024 1887 C 1968.317 1890.025, 1967.412 1892.950, 1967.013 1893.500 C 1966.615 1894.050, 1965.740 1896.744, 1965.070 1899.487 C 1964.400 1902.229, 1963.494 1904.929, 1963.057 1905.487 C 1962.620 1906.044, 1961.694 1908.975, 1961 1912 C 1960.306 1915.025, 1959.391 1917.950, 1958.967 1918.500 C 1958.543 1919.050, 1957.683 1921.525, 1957.056 1924 C 1956.429 1926.475, 1955.497 1929.400, 1954.984 1930.500 C 1954.471 1931.600, 1952.700 1936.550, 1951.048 1941.500 C 1949.396 1946.450, 1946.872 1953.650, 1945.439 1957.500 C 1944.006 1961.350, 1942.235 1966.300, 1941.504 1968.500 C 1939.976 1973.098, 1925.661 2008.930, 1923.465 2013.651 C 1922.659 2015.384, 1922 2017.191, 1922 2017.666 C 1922 2018.141, 1921.163 2020.098, 1920.140 2022.015 C 1919.117 2023.932, 1917.950 2026.625, 1917.547 2028 C 1917.145 2029.375, 1915.957 2032.412, 1914.907 2034.750 C 1912.956 2039.098, 1910.449 2044.781, 1907.740 2051 C 1905.597 2055.922, 1901.860 2064.152, 1897.525 2073.500 C 1895.485 2077.900, 1892.776 2083.750, 1891.506 2086.500 C 1890.235 2089.250, 1887.533 2095.100, 1885.500 2099.500 C 1883.467 2103.900, 1880.038 2111.207, 1877.879 2115.739 C 1873.839 2124.218, 1868.916 2134.698, 1862.608 2148.250 C 1860.623 2152.512, 1857.463 2159.262, 1855.584 2163.250 C 1848.790 2177.670, 1843 2190.234, 1843 2190.554 C 1843 2190.734, 1841.160 2194.846, 1838.911 2199.691 C 1836.661 2204.536, 1834.006 2210.300, 1833.009 2212.500 C 1832.012 2214.700, 1829.634 2219.875, 1827.725 2224 C 1825.815 2228.125, 1823.021 2234.200, 1821.517 2237.500 C 1820.012 2240.800, 1817.302 2246.650, 1815.494 2250.500 C 1813.687 2254.350, 1811.036 2260.088, 1809.604 2263.250 C 1808.172 2266.412, 1805.875 2271.475, 1804.500 2274.500 C 1794.312 2296.915, 1793.773 2298.127, 1790.500 2306 C 1789.014 2309.575, 1786.943 2314.349, 1785.899 2316.610 C 1784.854 2318.870, 1784 2321.052, 1784 2321.458 C 1784 2321.865, 1783.345 2323.616, 1782.545 2325.349 C 1780.329 2330.146, 1778.086 2336.694, 1775.735 2345.222 C 1773.820 2352.173, 1773.737 2353.471, 1774.909 2358.222 C 1779.947 2378.658, 1800.810 2400.390, 1830.128 2415.742 C 1846.626 2424.380, 1862.302 2427.567, 1878.401 2425.556 C 1890.631 2424.028, 1904.097 2409.717, 1917.974 2383.500 C 1920.303 2379.100, 1923.045 2373.925, 1924.066 2372 C 1926.778 2366.890, 1934.999 2348.997, 1935.006 2348.190 C 1935.010 2347.810, 1935.635 2346.306, 1936.397 2344.847 C 1937.158 2343.387, 1938.330 2340.531, 1939 2338.500 C 1939.670 2336.469, 1940.842 2333.613, 1941.603 2332.153 C 1942.365 2330.694, 1942.990 2329.118, 1942.994 2328.651 C 1942.997 2328.184, 1943.641 2326.384, 1944.424 2324.651 C 1945.207 2322.918, 1947.293 2318.125, 1949.060 2314 C 1950.828 2309.875, 1953.825 2303.125, 1955.722 2299 C 1959.441 2290.914, 1961.913 2285.450, 1964.885 2278.750 C 1965.922 2276.412, 1968.397 2270.995, 1970.385 2266.712 C 1972.373 2262.428, 1974 2258.659, 1974 2258.335 C 1974 2258.011, 1975.521 2254.540, 1977.381 2250.623 C 1979.241 2246.705, 1981.665 2241.475, 1982.769 2239 C 1983.873 2236.525, 1986.001 2231.800, 1987.498 2228.500 C 1988.995 2225.200, 1990.905 2220.925, 1991.742 2219 C 1993.923 2213.988, 1996.690 2207.697, 1999 2202.500 C 2000.100 2200.025, 2001.850 2196.088, 2002.888 2193.750 C 2003.927 2191.412, 2005.952 2186.940, 2007.388 2183.812 C 2008.825 2180.683, 2010 2177.911, 2010 2177.651 C 2010 2177.391, 2011.534 2173.876, 2013.409 2169.839 C 2015.284 2165.803, 2018.018 2159.575, 2019.485 2156 C 2020.952 2152.425, 2023.018 2147.588, 2024.076 2145.250 C 2025.134 2142.913, 2026.840 2139.088, 2027.867 2136.750 C 2028.895 2134.412, 2030.470 2130.857, 2031.367 2128.849 C 2032.265 2126.841, 2033 2124.884, 2033 2124.500 C 2033 2124.116, 2033.641 2122.384, 2034.424 2120.651 C 2035.207 2118.918, 2037.266 2114.125, 2039 2110 C 2040.734 2105.875, 2042.793 2101.082, 2043.576 2099.349 C 2044.359 2097.616, 2045.015 2095.816, 2045.034 2095.349 C 2045.053 2094.882, 2045.937 2092.700, 2047 2090.500 C 2048.063 2088.300, 2048.947 2086.138, 2048.966 2085.695 C 2048.985 2085.252, 2049.842 2083.002, 2050.870 2080.695 C 2051.899 2078.388, 2053.956 2073.350, 2055.440 2069.500 C 2056.925 2065.650, 2058.783 2061.082, 2059.570 2059.349 C 2060.356 2057.616, 2061.002 2055.816, 2061.005 2055.349 C 2061.007 2054.882, 2062.070 2051.896, 2063.366 2048.714 C 2065.723 2042.928, 2065.723 2042.928, 2069.021 2053.214 C 2070.835 2058.871, 2072.632 2063.950, 2073.015 2064.500 C 2073.398 2065.050, 2074.260 2067.744, 2074.930 2070.487 C 2075.600 2073.229, 2076.495 2075.929, 2076.919 2076.487 C 2077.343 2077.044, 2078.279 2079.750, 2079 2082.500 C 2079.721 2085.250, 2080.612 2087.950, 2080.980 2088.500 C 2081.348 2089.050, 2082.199 2091.525, 2082.871 2094 C 2083.543 2096.475, 2084.494 2099.400, 2084.986 2100.500 C 2085.477 2101.600, 2088.874 2111.725, 2092.534 2123 C 2096.194 2134.275, 2099.795 2145.075, 2100.536 2147 C 2101.278 2148.925, 2102.161 2151.625, 2102.500 2153 C 2102.839 2154.375, 2103.727 2157.075, 2104.473 2159 C 2105.220 2160.925, 2109.748 2174.650, 2114.537 2189.500 C 2119.325 2204.350, 2123.816 2217.850, 2124.516 2219.500 C 2125.216 2221.150, 2126.104 2223.993, 2126.489 2225.817 C 2126.874 2227.642, 2127.818 2230.342, 2128.588 2231.817 C 2129.358 2233.293, 2129.993 2235.175, 2130 2236 C 2130.007 2236.825, 2130.642 2238.707, 2131.412 2240.183 C 2132.182 2241.658, 2133.130 2244.358, 2133.519 2246.183 C 2133.908 2248.007, 2135.076 2251.388, 2136.113 2253.695 C 2137.151 2256.002, 2138 2258.409, 2138 2259.044 C 2138 2259.679, 2138.614 2261.616, 2139.364 2263.349 C 2140.115 2265.082, 2141.891 2269.650, 2143.310 2273.500 C 2146.868 2283.147, 2164.833 2328.550, 2167.128 2333.695 C 2168.158 2336.002, 2169 2338.168, 2169 2338.507 C 2169 2338.846, 2170.175 2341.683, 2171.612 2344.812 C 2174.060 2350.144, 2175.541 2353.472, 2179.262 2362 C 2193.161 2393.856, 2201.253 2409.705, 2207.466 2417.238 C 2216.374 2428.037, 2223.953 2433.375, 2236.425 2437.635 C 2243.247 2439.965, 2243.940 2440, 2282.770 2440 C 2320.295 2440, 2322.533 2439.896, 2329.345 2437.839 C 2337.914 2435.251, 2342.271 2432.656, 2347.189 2427.213 C 2353.352 2420.391, 2354.922 2411.725, 2352.580 2397.458 C 2350.600 2385.403, 2349.417 2381.931, 2342.031 2366.500 C 2332.220 2346.003, 2328 2336.908, 2328 2336.258 C 2328 2335.913, 2327.134 2333.802, 2326.076 2331.566 C 2325.018 2329.330, 2322.970 2324.575, 2321.525 2321 C 2320.080 2317.425, 2318.284 2313.150, 2317.533 2311.500 C 2316.782 2309.850, 2314.974 2305.575, 2313.514 2302 C 2312.054 2298.425, 2310.468 2294.600, 2309.989 2293.500 C 2309.510 2292.400, 2307.707 2288.125, 2305.983 2284 C 2304.258 2279.875, 2302.207 2275.082, 2301.424 2273.349 C 2300.641 2271.616, 2299.997 2269.816, 2299.994 2269.349 C 2299.990 2268.882, 2299.365 2267.306, 2298.603 2265.847 C 2297.842 2264.387, 2296.661 2261.462, 2295.979 2259.347 C 2295.297 2257.231, 2294.407 2255.050, 2294 2254.500 C 2293.593 2253.950, 2292.693 2251.700, 2292 2249.500 C 2291.307 2247.300, 2290.407 2245.050, 2290 2244.500 C 2289.593 2243.950, 2288.703 2241.769, 2288.021 2239.653 C 2287.339 2237.538, 2286.158 2234.613, 2285.397 2233.153 C 2284.635 2231.694, 2284.010 2230.118, 2284.006 2229.651 C 2284.003 2229.184, 2283.376 2227.384, 2282.613 2225.651 C 2281.196 2222.434, 2270.785 2195.731, 2266.373 2184 C 2265.029 2180.425, 2263.270 2176.022, 2262.464 2174.216 C 2261.659 2172.410, 2261 2170.453, 2261 2169.867 C 2261 2169.281, 2260.340 2167.384, 2259.533 2165.651 C 2258.727 2163.918, 2255.787 2156.200, 2253 2148.500 C 2250.213 2140.800, 2247.273 2133.082, 2246.467 2131.349 C 2245.660 2129.616, 2244.985 2127.591, 2244.966 2126.849 C 2244.947 2126.107, 2244.063 2123.700, 2243 2121.500 C 2241.937 2119.300, 2241.053 2116.893, 2241.034 2116.151 C 2241.015 2115.409, 2240.379 2113.384, 2239.621 2111.651 C 2237.687 2107.234, 2228.992 2082.681, 2228.996 2081.651 C 2228.998 2081.184, 2228.366 2079.384, 2227.592 2077.651 C 2226.817 2075.918, 2224.724 2070.225, 2222.940 2065 C 2221.156 2059.775, 2217.732 2049.875, 2215.332 2043 C 2207.178 2019.647, 2199.904 1998.530, 2196.386 1988 C 2194.457 1982.225, 2192.489 1976.600, 2192.014 1975.500 C 2191.539 1974.400, 2189.746 1969.225, 2188.029 1964 C 2186.312 1958.775, 2184.509 1953.600, 2184.023 1952.500 C 2183.537 1951.400, 2182.627 1948.700, 2182 1946.500 C 2181.373 1944.300, 2180.470 1941.600, 2179.993 1940.500 C 2179.517 1939.400, 2172.540 1918.700, 2164.491 1894.500 C 2156.441 1870.300, 2149.459 1849.600, 2148.974 1848.500 C 2148.489 1847.400, 2147.543 1844.475, 2146.871 1842 C 2146.199 1839.525, 2145.348 1837.050, 2144.980 1836.500 C 2144.612 1835.950, 2143.721 1833.250, 2143 1830.500 C 2142.279 1827.750, 2141.372 1825.050, 2140.983 1824.500 C 2139.474 1822.366, 2139.019 1817.894, 2139.942 1814.279 C 2140.473 1812.201, 2141.861 1806.900, 2143.027 1802.500 C 2144.192 1798.100, 2145.979 1791.125, 2146.997 1787 C 2149.099 1778.481, 2154.319 1757.739, 2156.057 1751 C 2157.403 1745.780, 2160.596 1732.156, 2162.502 1723.500 C 2163.228 1720.200, 2164.780 1713.225, 2165.950 1708 C 2173.764 1673.104, 2182.026 1630.145, 2190.087 1582.500 C 2191.204 1575.900, 2192.991 1565.438, 2194.059 1559.250 C 2195.126 1553.063, 2196.868 1542.938, 2197.929 1536.750 C 2198.989 1530.563, 2200.797 1520.100, 2201.945 1513.500 C 2203.093 1506.900, 2204.687 1497.450, 2205.487 1492.500 C 2206.286 1487.550, 2207.219 1482.375, 2207.559 1481 C 2208.167 1478.543, 2210.652 1464.750, 2213.504 1448 C 2214.300 1443.325, 2215.860 1434.550, 2216.971 1428.500 C 2218.081 1422.450, 2219.698 1413.225, 2220.565 1408 C 2221.431 1402.775, 2222.751 1395.800, 2223.497 1392.500 C 2224.243 1389.200, 2225.143 1384.025, 2225.496 1381 C 2225.849 1377.975, 2226.549 1374.150, 2227.050 1372.500 C 2227.552 1370.850, 2228.615 1365.450, 2229.413 1360.500 C 2233.099 1337.625, 2234.879 1327.383, 2235.406 1326 C 2235.720 1325.175, 2236.643 1320.450, 2237.456 1315.500 C 2239.804 1301.213, 2244.363 1277.508, 2248.946 1255.750 C 2250.076 1250.388, 2251.924 1241.612, 2253.054 1236.250 C 2263.505 1186.635, 2268.029 1148.389, 2267.958 1110.241 C 2267.917 1088.181, 2267.834 1087.259, 2265.191 1079.433 C 2263.692 1074.997, 2260.899 1068.697, 2258.983 1065.435 C 2255.143 1058.896, 2238.231 1041.349, 2233.500 1038.996 C 2231.850 1038.175, 2230.275 1037.223, 2230 1036.881 C 2228.736 1035.307, 2216.114 1029.683, 2207.788 1026.984 C 2199.083 1024.163, 2197.678 1024, 2182.018 1024 C 2165.456 1024, 2165.456 1024, 2161.760 1027.046 M 1367 1058.539 C 1346.207 1062.069, 1339.072 1064.175, 1324.309 1071.137 C 1319.804 1073.262, 1315.771 1075, 1315.347 1075 C 1314.923 1075, 1312.759 1073.231, 1310.538 1071.068 C 1308.317 1068.906, 1303.350 1065.472, 1299.500 1063.437 C 1287.420 1057.052, 1276.595 1058.396, 1261.960 1068.097 C 1258.407 1070.453, 1254.990 1072.857, 1254.367 1073.440 C 1253.745 1074.023, 1251.495 1075.912, 1249.367 1077.637 C 1238.640 1086.339, 1226.314 1099.756, 1212.747 1117.500 C 1212.326 1118.050, 1210.250 1120.750, 1208.133 1123.500 C 1201.895 1131.605, 1193.274 1144.089, 1189.833 1150 C 1188.073 1153.025, 1186.350 1155.725, 1186.006 1156 C 1183.412 1158.071, 1153 1215.636, 1153 1218.475 C 1153 1218.832, 1151.831 1221.683, 1150.402 1224.812 C 1146.513 1233.327, 1145.298 1236.243, 1144.489 1239 C 1144.085 1240.375, 1143.419 1241.950, 1143.008 1242.500 C 1142.597 1243.050, 1141.693 1245.300, 1141 1247.500 C 1140.307 1249.700, 1139.407 1251.950, 1139 1252.500 C 1138.593 1253.050, 1137.713 1255.300, 1137.044 1257.500 C 1136.375 1259.700, 1135.191 1262.918, 1134.414 1264.651 C 1133.636 1266.384, 1133 1268.321, 1133 1268.956 C 1133 1269.591, 1132.151 1271.998, 1131.113 1274.305 C 1130.076 1276.612, 1128.899 1280.075, 1128.498 1282 C 1128.097 1283.925, 1127.415 1285.950, 1126.982 1286.500 C 1126.550 1287.050, 1125.683 1289.525, 1125.056 1292 C 1124.429 1294.475, 1123.526 1297.400, 1123.048 1298.500 C 1122.255 1300.326, 1120.137 1307.354, 1115.061 1325 C 1111.694 1336.705, 1109.157 1346.350, 1107.038 1355.500 C 1105.891 1360.450, 1104.484 1366.228, 1103.909 1368.341 C 1103.335 1370.453, 1102.187 1375.628, 1101.358 1379.841 C 1100.529 1384.053, 1098.948 1392, 1097.844 1397.500 C 1092.748 1422.900, 1088.714 1447.921, 1086.398 1468.500 C 1085.593 1475.650, 1084.486 1483.750, 1083.938 1486.500 C 1083.043 1490.992, 1081.698 1506.647, 1078.998 1544 C 1074.265 1609.484, 1074.267 1711.202, 1079.002 1781.500 C 1082.288 1830.275, 1083.053 1840.213, 1083.968 1846 C 1084.533 1849.575, 1085.467 1859.025, 1086.044 1867 C 1086.621 1874.975, 1087.520 1883.975, 1088.042 1887 C 1088.564 1890.025, 1089.663 1898.800, 1090.484 1906.500 C 1092.671 1926.993, 1094.744 1943.678, 1095.953 1950.500 C 1097.215 1957.622, 1099.592 1973.557, 1101.491 1987.630 C 1102.243 1993.201, 1103.299 1999.501, 1103.838 2001.630 C 1104.376 2003.758, 1105.093 2007.750, 1105.430 2010.500 C 1105.767 2013.250, 1106.697 2018.650, 1107.495 2022.500 C 1108.819 2028.882, 1109.720 2033.422, 1113.544 2053 C 1115.183 2061.392, 1118.385 2076.171, 1120.963 2087.250 C 1126.627 2111.582, 1127.230 2114.009, 1132.830 2135 C 1137.293 2151.728, 1138.112 2154.584, 1138.995 2156.500 C 1139.502 2157.600, 1140.404 2160.525, 1141 2163 C 1141.596 2165.475, 1142.466 2168.400, 1142.934 2169.500 C 1143.402 2170.600, 1145.052 2175.550, 1146.601 2180.500 C 1148.149 2185.450, 1151.409 2194.900, 1153.845 2201.500 C 1156.280 2208.100, 1158.899 2215.300, 1159.663 2217.500 C 1160.428 2219.700, 1161.463 2222.400, 1161.963 2223.500 C 1162.463 2224.600, 1165.220 2230.897, 1168.090 2237.494 C 1173.043 2248.881, 1182.918 2268.708, 1186.631 2274.720 C 1193.528 2285.887, 1199.095 2294.393, 1202.196 2298.500 C 1227.108 2331.501, 1248.787 2351.158, 1280.208 2369.237 C 1285.319 2372.177, 1291.075 2375.202, 1293 2375.959 C 1294.925 2376.716, 1296.971 2377.689, 1297.547 2378.122 C 1299.458 2379.557, 1320.372 2386.801, 1328.500 2388.843 C 1335.866 2390.694, 1341.218 2391.607, 1359 2394.044 C 1367.284 2395.179, 1392.373 2395.177, 1401.500 2394.040 C 1416.475 2392.175, 1424.810 2390.775, 1432.500 2388.833 C 1442.825 2386.226, 1460.518 2380.252, 1464.985 2377.863 C 1466.902 2376.838, 1468.838 2376, 1469.288 2376 C 1470.807 2376, 1497.905 2360.118, 1500 2358 C 1500.275 2357.722, 1502.525 2356.162, 1505 2354.533 C 1519.741 2344.832, 1542.996 2322.180, 1558.420 2302.500 C 1568.563 2289.559, 1582 2269.975, 1582 2268.133 C 1582 2267.602, 1582.358 2267.017, 1582.796 2266.833 C 1585.027 2265.898, 1602.649 2231.994, 1611.035 2212.500 C 1618.545 2195.043, 1621 2189.030, 1621 2188.096 C 1621 2187.478, 1621.452 2186.191, 1622.005 2185.236 C 1623.378 2182.864, 1632.156 2158.221, 1634.913 2149 C 1636.146 2144.875, 1637.500 2140.825, 1637.923 2140 C 1638.345 2139.175, 1639.269 2136.025, 1639.976 2133 C 1640.683 2129.975, 1641.603 2127.050, 1642.020 2126.500 C 1642.436 2125.950, 1643.352 2122.800, 1644.054 2119.500 C 1644.756 2116.200, 1645.664 2113.050, 1646.071 2112.500 C 1646.479 2111.950, 1647.369 2108.575, 1648.049 2105 C 1648.730 2101.425, 1649.613 2098.050, 1650.012 2097.500 C 1650.410 2096.950, 1651.305 2093.350, 1652 2089.500 C 1652.695 2085.650, 1653.603 2082.050, 1654.019 2081.500 C 1654.434 2080.950, 1655.077 2078.475, 1655.447 2076 C 1655.817 2073.525, 1656.748 2069.250, 1657.514 2066.500 C 1658.281 2063.750, 1659.640 2057.900, 1660.536 2053.500 C 1664.459 2034.219, 1666.075 2025.969, 1667.462 2018.126 C 1668.277 2013.521, 1669.171 2009.021, 1669.450 2008.126 C 1669.944 2006.538, 1671.400 1997.193, 1674.456 1976 C 1675.288 1970.225, 1676.420 1963.025, 1676.970 1960 C 1677.520 1956.975, 1678.632 1948.527, 1679.440 1941.227 C 1680.249 1933.926, 1681.110 1927.626, 1681.354 1927.227 C 1681.598 1926.827, 1682.311 1920.425, 1682.939 1913 C 1683.567 1905.575, 1684.529 1896.800, 1685.078 1893.500 C 1685.626 1890.200, 1686.738 1878.725, 1687.547 1868 C 1688.357 1857.275, 1689.452 1843.100, 1689.982 1836.500 C 1691.251 1820.683, 1692.796 1788.626, 1694.104 1751 C 1695.352 1715.057, 1694.641 1586.453, 1693.109 1571 C 1692.536 1565.225, 1691.589 1549.250, 1691.006 1535.500 C 1690.422 1521.750, 1689.514 1508.025, 1688.988 1505 C 1688.461 1501.975, 1687.363 1492.075, 1686.546 1483 C 1684.567 1461.005, 1682.343 1441.630, 1681.093 1435.500 C 1680.532 1432.750, 1679.371 1425.550, 1678.514 1419.500 C 1676.254 1403.560, 1674.280 1391.448, 1673.076 1386.141 C 1672.497 1383.589, 1671.308 1377.900, 1670.434 1373.500 C 1665.930 1350.830, 1655.374 1306.895, 1653.856 1304.500 C 1653.507 1303.950, 1652.672 1300.827, 1652.001 1297.560 C 1651.329 1294.292, 1650.424 1290.917, 1649.989 1290.060 C 1649.555 1289.202, 1646.831 1281.075, 1643.936 1272 C 1641.041 1262.925, 1638.372 1255.050, 1638.005 1254.500 C 1637.638 1253.950, 1636.300 1250.575, 1635.032 1247 C 1633.764 1243.425, 1631.663 1238.166, 1630.363 1235.314 C 1629.063 1232.462, 1628 1229.834, 1628 1229.474 C 1628 1228.055, 1612.390 1196.898, 1606.720 1187 C 1601.584 1178.034, 1589.345 1158.689, 1586.791 1155.500 C 1586.350 1154.950, 1582.418 1149.921, 1578.052 1144.324 C 1570.784 1135.006, 1553.546 1116.805, 1545 1109.425 C 1538.582 1103.883, 1527.573 1095.449, 1521 1091.039 C 1517.425 1088.640, 1513.198 1085.789, 1511.607 1084.703 C 1505.701 1080.673, 1485.166 1071.095, 1475 1067.629 C 1460.385 1062.647, 1450.148 1060.426, 1426.500 1057.109 C 1412.722 1055.176, 1382.535 1055.902, 1367 1058.539 M 2704 1058.528 C 2683.603 1061.974, 2673.774 1064.901, 2659.724 1071.714 C 2655.997 1073.521, 2652.596 1075, 2652.167 1075 C 2651.738 1075, 2649.197 1072.961, 2646.521 1070.469 C 2643.845 1067.977, 2638.699 1064.527, 2635.086 1062.802 C 2629.604 1060.186, 2627.322 1059.667, 2621.311 1059.667 C 2617.349 1059.667, 2613.520 1060.126, 2612.803 1060.688 C 2612.086 1061.250, 2610.063 1062.193, 2608.307 1062.783 C 2599.804 1065.641, 2579.268 1082.139, 2567.451 1095.606 C 2559.925 1104.184, 2546.252 1121.139, 2542.091 1127.055 C 2535.349 1136.641, 2522.090 1156.798, 2518.881 1162.340 C 2517.022 1165.552, 2514.651 1169.602, 2513.614 1171.340 C 2504.466 1186.666, 2491.332 1213.539, 2484.886 1230.117 C 2483.093 1234.728, 2481.035 1239.388, 2480.313 1240.473 C 2479.591 1241.557, 2479 1243.064, 2479 1243.821 C 2479 1244.578, 2478.356 1246.616, 2477.570 1248.349 C 2475.635 1252.612, 2471.806 1262.802, 2468.494 1272.500 C 2466.991 1276.900, 2465.188 1281.850, 2464.486 1283.500 C 2463.785 1285.150, 2462.887 1288.075, 2462.490 1290 C 2462.093 1291.925, 2461.430 1293.950, 2461.015 1294.500 C 2460.601 1295.050, 2459.683 1297.975, 2458.976 1301 C 2458.269 1304.025, 2457.319 1307.175, 2456.863 1308 C 2456.408 1308.825, 2455.322 1312.200, 2454.451 1315.500 C 2453.579 1318.800, 2451.961 1324.650, 2450.857 1328.500 C 2447.791 1339.184, 2445.005 1349.858, 2443.549 1356.500 C 2442.825 1359.800, 2441.728 1364.525, 2441.111 1367 C 2438.401 1377.861, 2436.004 1388.841, 2435.436 1393 C 2435.098 1395.475, 2434.374 1398.970, 2433.827 1400.767 C 2432.805 1404.128, 2431.092 1413.995, 2428.491 1431.500 C 2427.673 1437, 2426.551 1443.525, 2425.996 1446 C 2425.441 1448.475, 2424.331 1456.125, 2423.529 1463 C 2422.727 1469.875, 2421.616 1478.875, 2421.061 1483 C 2420.505 1487.125, 2419.599 1495.900, 2419.047 1502.500 C 2418.495 1509.100, 2417.596 1519.675, 2417.049 1526 C 2416.013 1537.972, 2414.400 1564.074, 2413.001 1591.500 C 2411.947 1612.166, 2411.943 1709.725, 2412.995 1730.500 C 2415.011 1770.293, 2416.153 1790.377, 2417.032 1801.500 C 2417.554 1808.100, 2418.640 1822.275, 2419.447 1833 C 2420.253 1843.725, 2421.379 1855.875, 2421.950 1860 C 2422.521 1864.125, 2423.660 1874.250, 2424.480 1882.500 C 2426.865 1906.472, 2428.874 1924.038, 2429.970 1930.500 C 2430.529 1933.800, 2431.712 1941.900, 2432.597 1948.500 C 2435.441 1969.702, 2436.716 1978.376, 2437.815 1984 C 2438.406 1987.025, 2439.175 1991.975, 2439.524 1995 C 2439.874 1998.025, 2440.558 2002.075, 2441.046 2004 C 2441.533 2005.925, 2442.633 2011.775, 2443.490 2017 C 2445.246 2027.715, 2447.942 2041.951, 2450.876 2056 C 2451.967 2061.225, 2453.597 2069.325, 2454.498 2074 C 2455.399 2078.675, 2456.523 2083.400, 2456.995 2084.500 C 2457.467 2085.600, 2458.396 2089.650, 2459.059 2093.500 C 2459.721 2097.350, 2460.595 2100.950, 2461 2101.500 C 2461.405 2102.050, 2462.305 2105.650, 2463.001 2109.500 C 2463.696 2113.350, 2464.543 2116.950, 2464.883 2117.500 C 2465.222 2118.050, 2466.245 2121.650, 2467.155 2125.500 C 2468.692 2132.002, 2469.750 2135.878, 2474.868 2153.758 C 2475.930 2157.466, 2477.506 2162.975, 2478.370 2166 C 2479.234 2169.025, 2480.359 2172.400, 2480.869 2173.500 C 2481.379 2174.600, 2483.173 2179.775, 2484.854 2185 C 2486.535 2190.225, 2489.080 2197.650, 2490.510 2201.500 C 2491.939 2205.350, 2493.549 2209.940, 2494.087 2211.699 C 2494.626 2213.459, 2495.723 2216.159, 2496.527 2217.699 C 2497.330 2219.240, 2497.990 2220.882, 2497.994 2221.349 C 2498 2222.213, 2498.796 2224.103, 2503.402 2234.188 C 2504.831 2237.317, 2506 2240.158, 2506 2240.504 C 2506 2242.181, 2519.655 2268.174, 2526.536 2279.595 C 2542.936 2306.816, 2562.204 2329.131, 2584.645 2346.889 C 2597.683 2357.207, 2602.362 2360.581, 2610.993 2365.884 C 2617.441 2369.847, 2637.114 2379.998, 2638.349 2379.999 C 2638.816 2380, 2640.616 2380.652, 2642.349 2381.448 C 2650.206 2385.059, 2669.037 2390.188, 2681 2391.976 C 2697.638 2394.462, 2703.090 2394.912, 2716.500 2394.902 C 2748.723 2394.879, 2777.375 2388.979, 2803.739 2376.936 C 2806.071 2375.871, 2808.396 2375, 2808.906 2375 C 2809.416 2375, 2809.983 2374.662, 2810.167 2374.250 C 2810.350 2373.838, 2813.425 2371.967, 2817 2370.093 C 2822.563 2367.177, 2830.098 2362.613, 2837.375 2357.752 C 2849.489 2349.661, 2865.538 2335.683, 2878.500 2321.938 C 2882.350 2317.855, 2885.752 2314.286, 2886.060 2314.007 C 2888.612 2311.696, 2903.401 2292.049, 2910.359 2281.724 C 2924.685 2260.467, 2935.171 2241.267, 2945.980 2216.500 C 2948.860 2209.900, 2952.068 2202.670, 2953.109 2200.434 C 2954.149 2198.198, 2955 2195.637, 2955 2194.743 C 2955 2193.849, 2955.400 2192.871, 2955.889 2192.568 C 2956.378 2192.266, 2957.086 2190.793, 2957.462 2189.294 C 2957.838 2187.796, 2958.980 2184.738, 2960 2182.500 C 2961.020 2180.262, 2962.174 2177.096, 2962.565 2175.465 C 2962.956 2173.834, 2963.617 2172.050, 2964.035 2171.500 C 2964.452 2170.950, 2965.369 2168.475, 2966.072 2166 C 2966.775 2163.525, 2967.677 2161.050, 2968.077 2160.500 C 2968.477 2159.950, 2969.317 2157.475, 2969.944 2155 C 2970.571 2152.525, 2971.488 2149.600, 2971.983 2148.500 C 2972.478 2147.400, 2974.078 2142.450, 2975.537 2137.500 C 2976.997 2132.550, 2979.010 2125.800, 2980.010 2122.500 C 2981.009 2119.200, 2982.783 2112.900, 2983.950 2108.500 C 2985.118 2104.100, 2986.729 2098.025, 2987.532 2095 C 2988.334 2091.975, 2990.134 2084.550, 2991.530 2078.500 C 2992.927 2072.450, 2994.706 2064.800, 2995.483 2061.500 C 2998.153 2050.162, 3000.826 2037.494, 3001.496 2033 C 3001.866 2030.525, 3002.596 2026.925, 3003.120 2025 C 3003.644 2023.075, 3004.761 2017.225, 3005.603 2012 C 3006.444 2006.775, 3008.012 1997.100, 3009.087 1990.500 C 3011.797 1973.849, 3014.769 1952.809, 3016.502 1938 C 3017.307 1931.125, 3018.420 1922.800, 3018.975 1919.500 C 3019.530 1916.200, 3020.447 1907.650, 3021.013 1900.500 C 3021.578 1893.350, 3022.502 1884.575, 3023.067 1881 C 3024.007 1875.045, 3025.673 1853.544, 3027.986 1817.500 C 3030.067 1785.079, 3031.001 1741.365, 3031 1676.423 C 3031 1608.137, 3029.166 1535.830, 3027.032 1520 C 3026.476 1515.875, 3025.334 1504.400, 3024.494 1494.500 C 3022.395 1469.750, 3020.301 1450.458, 3019.068 1444.500 C 3018.498 1441.750, 3017.365 1434.325, 3016.548 1428 C 3012.548 1397.001, 3003.680 1352.748, 2994.505 1318 C 2988.640 1295.791, 2978.715 1263.673, 2975.499 1256.500 C 2974.759 1254.850, 2973.845 1252.258, 2973.466 1250.741 C 2973.088 1249.223, 2972.378 1247.734, 2971.889 1247.432 C 2971.400 1247.129, 2971 1246.247, 2971 1245.471 C 2971 1244.694, 2969.875 1241.600, 2968.500 1238.594 C 2967.125 1235.588, 2966 1232.787, 2966 1232.371 C 2966 1231.280, 2950.662 1199.454, 2947.990 1195 C 2947.495 1194.175, 2944.961 1189.675, 2942.360 1185 C 2920.453 1145.635, 2888.999 1111.239, 2854.500 1088.921 C 2837.209 1077.735, 2827.272 1072.824, 2810.184 1067.015 C 2779.260 1056.503, 2736.305 1053.070, 2704 1058.528 M 1394.500 1174.604 C 1390.319 1175.640, 1382.152 1180.223, 1379.008 1183.296 C 1369.900 1192.201, 1356.661 1213.475, 1348.700 1232 C 1347.873 1233.925, 1346.027 1238.060, 1344.598 1241.188 C 1343.169 1244.317, 1342 1247.384, 1342 1248.004 C 1342 1248.624, 1341.463 1250.114, 1340.807 1251.316 C 1339.589 1253.546, 1333.166 1271.480, 1330.354 1280.500 C 1329.497 1283.250, 1328.454 1285.950, 1328.036 1286.500 C 1327.618 1287.050, 1326.963 1288.805, 1326.581 1290.400 C 1326.199 1291.995, 1324.318 1297.395, 1322.400 1302.400 C 1313.123 1326.611, 1310.656 1332.952, 1308.352 1338.500 C 1306.981 1341.800, 1305.507 1345.400, 1305.075 1346.500 C 1302.045 1354.218, 1294.330 1368.277, 1290.986 1372.174 C 1285.342 1378.750, 1280.230 1380.311, 1266.227 1379.734 C 1254.251 1379.240, 1244.024 1377.601, 1240.102 1375.545 C 1237.500 1374.182, 1237.500 1374.182, 1235.729 1381.841 C 1230.191 1405.794, 1226.597 1423.552, 1224.481 1437.414 C 1223.733 1442.317, 1222.666 1448.392, 1222.110 1450.914 C 1221.554 1453.436, 1220.589 1460.217, 1219.965 1465.981 C 1219.342 1471.746, 1218.648 1476.760, 1218.423 1477.125 C 1218.198 1477.489, 1217.338 1485.147, 1216.512 1494.143 C 1215.686 1503.140, 1214.573 1515.225, 1214.039 1521 C 1210.144 1563.106, 1209.365 1638.953, 1212.250 1695 C 1213.198 1713.425, 1214.408 1732.550, 1214.938 1737.500 C 1215.468 1742.450, 1216.169 1752.350, 1216.496 1759.500 C 1216.823 1766.650, 1217.718 1778.800, 1218.486 1786.500 C 1219.254 1794.200, 1220.155 1804.775, 1220.488 1810 C 1220.821 1815.225, 1221.722 1824.900, 1222.490 1831.500 C 1223.258 1838.100, 1224.151 1847.325, 1224.475 1852 C 1224.798 1856.675, 1225.516 1863.200, 1226.071 1866.500 C 1226.625 1869.800, 1227.728 1878.800, 1228.522 1886.500 C 1230.404 1904.759, 1233.631 1930.827, 1234.401 1934 C 1234.735 1935.375, 1235.689 1941.900, 1236.521 1948.500 C 1239.686 1973.600, 1246.596 2015.803, 1251.912 2042.500 C 1253.007 2048, 1254.581 2056.100, 1255.410 2060.500 C 1256.239 2064.900, 1257.369 2070.075, 1257.921 2072 C 1258.474 2073.925, 1259.602 2078.875, 1260.429 2083 C 1262.481 2093.235, 1267.298 2113.069, 1270.993 2126.500 C 1272.203 2130.900, 1273.994 2137.425, 1274.971 2141 C 1277.752 2151.168, 1290.660 2188.283, 1293.925 2195.500 C 1294.920 2197.700, 1296.508 2201.300, 1297.452 2203.500 C 1301.035 2211.846, 1312.280 2233.586, 1315.778 2238.930 C 1327.617 2257.015, 1337.412 2268.227, 1346.500 2274.096 C 1354.103 2279.007, 1355.529 2279.690, 1362.655 2281.841 C 1375.963 2285.857, 1388.324 2283.857, 1400.500 2275.718 C 1420.046 2262.653, 1436.379 2246.634, 1450.176 2227 C 1454.199 2221.275, 1470 2194.607, 1470 2193.543 C 1470 2193.321, 1471.967 2188.945, 1474.371 2183.819 C 1476.774 2178.694, 1479.427 2172.925, 1480.265 2171 C 1481.103 2169.075, 1482.736 2165.387, 1483.894 2162.805 C 1485.053 2160.223, 1486 2157.783, 1486 2157.383 C 1486 2156.483, 1490.758 2144.063, 1491.906 2141.967 C 1492.368 2141.124, 1493.075 2138.874, 1493.478 2136.967 C 1493.881 2135.060, 1494.791 2132.150, 1495.499 2130.500 C 1496.208 2128.850, 1497.990 2123.450, 1499.460 2118.500 C 1500.930 2113.550, 1502.743 2107.700, 1503.490 2105.500 C 1504.237 2103.300, 1505.136 2099.925, 1505.488 2098 C 1505.841 2096.075, 1506.770 2092.475, 1507.554 2090 C 1509.418 2084.113, 1511.992 2073.771, 1513.154 2067.500 C 1513.663 2064.750, 1514.518 2061.375, 1515.053 2060 C 1515.588 2058.625, 1516.726 2053.900, 1517.583 2049.500 C 1518.440 2045.100, 1520.037 2037, 1521.132 2031.500 C 1541.294 1930.214, 1551.189 1796.898, 1548.186 1667 C 1547.203 1624.484, 1545.006 1574.095, 1543.543 1560.500 C 1543.247 1557.750, 1542.102 1545.600, 1540.999 1533.500 C 1533.670 1453.114, 1522.658 1379.097, 1511.468 1335 C 1499.148 1286.445, 1488.374 1257.513, 1471.625 1228 C 1455.665 1199.876, 1438.772 1183.623, 1418.795 1177.169 C 1412.415 1175.108, 1398.426 1173.631, 1394.500 1174.604 M 2730.500 1174.875 C 2720.857 1177.437, 2712.921 1184.519, 2703.467 1199 C 2695.906 1210.581, 2690.472 1220.855, 2683.899 1236 C 2681.153 1242.325, 2678.253 1248.978, 2677.454 1250.784 C 2676.654 1252.590, 2676 1254.547, 2676 1255.133 C 2676 1255.719, 2675.366 1257.616, 2674.592 1259.349 C 2673.817 1261.082, 2671.764 1266.775, 2670.028 1272 C 2668.293 1277.225, 2666.226 1282.918, 2665.436 1284.651 C 2664.646 1286.384, 2664 1288.341, 2664 1289 C 2664 1289.659, 2663.386 1291.616, 2662.636 1293.349 C 2661.885 1295.082, 2660.091 1299.650, 2658.649 1303.500 C 2652.588 1319.685, 2646.860 1334.634, 2646.005 1336.500 C 2645.502 1337.600, 2643.919 1341.425, 2642.489 1345 C 2638.134 1355.883, 2632.988 1365.511, 2628.402 1371.354 C 2624.773 1375.978, 2623.168 1377.170, 2618.839 1378.455 C 2609.594 1381.201, 2589.677 1379.822, 2576.350 1375.514 C 2573.981 1374.748, 2573.546 1375.949, 2570.380 1392 C 2569.566 1396.125, 2568.623 1400.175, 2568.284 1401 C 2567.944 1401.825, 2566.838 1406.775, 2565.825 1412 C 2557.331 1455.814, 2553.547 1485.295, 2549.911 1536 C 2547.334 1571.942, 2546.207 1646.482, 2547.892 1669.500 C 2548.497 1677.750, 2549.443 1695.075, 2549.996 1708 C 2550.549 1720.925, 2551.470 1736.225, 2552.043 1742 C 2552.616 1747.775, 2553.751 1762.400, 2554.564 1774.500 C 2558.624 1834.931, 2568.307 1920.325, 2577.922 1980.500 C 2578.977 1987.100, 2580.512 1996.775, 2581.334 2002 C 2583.206 2013.908, 2585.743 2027.691, 2587.499 2035.500 C 2588.241 2038.800, 2589.144 2043.750, 2589.505 2046.500 C 2589.866 2049.250, 2590.586 2052.888, 2591.104 2054.583 C 2591.621 2056.279, 2592.672 2061.004, 2593.439 2065.083 C 2596.449 2081.104, 2604.401 2114.811, 2608.871 2130.500 C 2609.968 2134.350, 2611.587 2140.200, 2612.469 2143.500 C 2613.352 2146.800, 2614.466 2150.400, 2614.946 2151.500 C 2615.426 2152.600, 2617.238 2158, 2618.972 2163.500 C 2620.707 2169, 2622.539 2174.400, 2623.044 2175.500 C 2623.549 2176.600, 2625.275 2181.100, 2626.880 2185.500 C 2633.242 2202.940, 2647.387 2231.696, 2655.310 2243.295 C 2670.780 2265.941, 2683.674 2277.138, 2699.820 2281.946 C 2713.679 2286.074, 2727.766 2283.419, 2739.111 2274.543 C 2740.547 2273.419, 2742.743 2271.825, 2743.992 2271 C 2750.375 2266.783, 2762.322 2256.451, 2768.400 2249.892 C 2774.431 2243.383, 2792 2220.956, 2792 2219.765 C 2792 2219.520, 2794.279 2215.535, 2797.065 2210.910 C 2802.379 2202.087, 2813 2180.853, 2813 2179.051 C 2813 2178.473, 2813.401 2178, 2813.892 2178 C 2814.382 2178, 2815.092 2176.762, 2815.469 2175.250 C 2815.846 2173.738, 2816.775 2171.150, 2817.535 2169.500 C 2823.361 2156.838, 2831.523 2134.226, 2837.386 2114.500 C 2838.858 2109.550, 2840.490 2104.139, 2841.014 2102.475 C 2844.015 2092.946, 2851.397 2062.886, 2855.128 2045 C 2866.452 1990.727, 2874.443 1933.956, 2878.424 1879.500 C 2879.228 1868.500, 2880.372 1854.325, 2880.966 1848 C 2882.600 1830.597, 2886.006 1738.649, 2886.003 1712.046 C 2885.996 1660.027, 2880.770 1551.461, 2876.951 1524 C 2876.377 1519.875, 2875.238 1509.525, 2874.421 1501 C 2872.167 1477.510, 2868.366 1447.628, 2863.098 1412 C 2851.666 1334.674, 2832.524 1269.681, 2809.200 1229 C 2806.553 1224.384, 2795.925 1208.105, 2793.728 1205.301 C 2793.052 1204.440, 2788.660 1199.857, 2783.967 1195.118 C 2777.178 1188.261, 2773.704 1185.638, 2766.967 1182.284 C 2762.310 1179.965, 2756.152 1177.373, 2753.281 1176.524 C 2747.002 1174.666, 2734.651 1173.772, 2730.500 1174.875" stroke="none" fill="#fc1444" fill-rule="evenodd"/></svg>