<svg xmlns="http://www.w3.org/2000/svg" width="1000" height="1000" viewBox="0 0 1000 1000" version="1.1"><path d="M 399.784 306.738 C 402.689 306.941, 407.189 306.939, 409.784 306.734 C 412.378 306.528, 410 306.363, 404.500 306.365 C 399 306.368, 396.878 306.536, 399.784 306.738 M 785.784 306.738 C 788.689 306.941, 793.189 306.939, 795.784 306.734 C 798.378 306.528, 796 306.363, 790.500 306.365 C 785 306.368, 782.878 306.536, 785.784 306.738 M 267.160 321.191 C 267.072 325.971, 267.337 330.092, 267.750 330.348 C 268.163 330.605, 268.375 328.044, 268.222 324.657 C 267.723 313.629, 267.323 312.325, 267.160 321.191 M 653.336 321 C 653.336 325.125, 653.513 326.813, 653.728 324.750 C 653.944 322.688, 653.944 319.313, 653.728 317.250 C 653.513 315.188, 653.336 316.875, 653.336 321 M 448.469 324.757 C 451.751 328.191, 454.634 331, 454.874 331 C 455.114 331, 454.597 330.212, 453.726 329.250 C 452.855 328.288, 452.110 327.163, 452.071 326.750 C 452.032 326.337, 451.797 326.113, 451.548 326.250 C 451.300 326.387, 449.162 324.703, 446.798 322.507 C 444.434 320.311, 445.186 321.324, 448.469 324.757 M 833.966 324.271 C 836.972 327.422, 839.648 330, 839.912 330 C 840.176 330, 838.946 328.508, 837.179 326.684 C 835.411 324.861, 834.198 323.061, 834.482 322.684 C 834.767 322.308, 834.696 322.229, 834.324 322.509 C 833.952 322.789, 832.490 322.011, 831.074 320.780 C 829.658 319.550, 830.960 321.120, 833.966 324.271 M 134.728 323.722 C 136.503 323.943, 139.653 323.946, 141.728 323.730 C 143.802 323.513, 142.350 323.333, 138.500 323.328 C 134.650 323.324, 132.952 323.501, 134.728 323.722 M 520.728 323.722 C 522.503 323.943, 525.653 323.946, 527.728 323.730 C 529.802 323.513, 528.350 323.333, 524.500 323.328 C 520.650 323.324, 518.952 323.501, 520.728 323.722 M 336.949 345.101 C 335.255 348.457, 334.034 351.367, 334.236 351.569 C 334.437 351.771, 336.038 349.025, 337.792 345.468 C 339.546 341.911, 340.767 339, 340.505 339 C 340.243 339, 338.643 341.746, 336.949 345.101 M 197.247 428.250 C 197.501 428.938, 198.487 431.866, 199.437 434.758 C 200.429 437.776, 201.602 439.746, 202.190 439.383 C 202.831 438.986, 202.855 438.516, 202.254 438.125 C 201.727 437.781, 200.517 435.137, 199.567 432.250 C 198.617 429.363, 197.602 427, 197.313 427 C 197.023 427, 196.994 427.563, 197.247 428.250 M 446.161 444.500 C 446.057 446.700, 445.741 449.625, 445.458 451 L 444.944 453.500 446.019 451.036 C 446.610 449.680, 446.927 446.755, 446.722 444.536 L 446.349 440.500 446.161 444.500 M 734.136 446.691 C 734.061 450.096, 734.337 453.091, 734.750 453.346 C 735.163 453.600, 735.368 451.715, 735.208 449.155 C 734.709 441.219, 734.278 440.228, 734.136 446.691 M 348.336 450 C 348.336 454.125, 348.513 455.813, 348.728 453.750 C 348.944 451.688, 348.944 448.313, 348.728 446.250 C 348.513 444.188, 348.336 445.875, 348.336 450 M 698.310 450.500 C 698.315 453.800, 698.502 455.029, 698.725 453.232 C 698.947 451.435, 698.943 448.735, 698.715 447.232 C 698.486 445.729, 698.304 447.200, 698.310 450.500 M 312.328 452.500 C 312.333 456.350, 312.513 457.802, 312.730 455.728 C 312.946 453.653, 312.943 450.503, 312.722 448.728 C 312.501 446.952, 312.324 448.650, 312.328 452.500 M 487.370 459 C 487.370 464.775, 487.535 467.137, 487.737 464.250 C 487.939 461.363, 487.939 456.637, 487.737 453.750 C 487.535 450.863, 487.370 453.225, 487.370 459 M 873.395 463.500 C 873.396 471.200, 873.553 474.218, 873.743 470.206 C 873.934 466.195, 873.932 459.895, 873.741 456.206 C 873.549 452.518, 873.393 455.800, 873.395 463.500 M 447.310 458.500 C 447.315 461.800, 447.502 463.029, 447.725 461.232 C 447.947 459.435, 447.943 456.735, 447.715 455.232 C 447.486 453.729, 447.304 455.200, 447.310 458.500 M 833.328 460.500 C 833.333 464.350, 833.513 465.802, 833.730 463.728 C 833.946 461.653, 833.943 458.503, 833.722 456.728 C 833.501 454.952, 833.324 456.650, 833.328 460.500 M 696.500 479.500 C 696.500 489.020, 696.837 496.600, 697.250 496.345 C 697.663 496.091, 698 488.510, 698 479.500 C 698 470.490, 697.663 462.909, 697.250 462.655 C 696.837 462.400, 696.500 469.980, 696.500 479.500 M 310.811 479.502 C 310.640 485.828, 310.837 491.003, 311.250 491.002 C 311.663 491.001, 312 485.825, 312 479.500 C 312 464.630, 311.212 464.631, 310.811 479.502 M 448.423 493.500 C 448.424 505.050, 448.570 509.638, 448.747 503.696 C 448.924 497.753, 448.923 488.303, 448.745 482.696 C 448.567 477.088, 448.422 481.950, 448.423 493.500 M 834.411 494 C 834.411 503.625, 834.561 507.563, 834.745 502.750 C 834.928 497.938, 834.928 490.063, 834.745 485.250 C 834.561 480.438, 834.411 484.375, 834.411 494 M 348 486.500 C 348 490.808, 348.190 494.143, 348.422 493.911 C 349.148 493.185, 349.369 480.035, 348.667 479.333 C 348.300 478.967, 348 482.192, 348 486.500 M 734.415 482.362 C 734.127 483.111, 734.035 486.374, 734.211 489.612 L 734.530 495.500 735.015 488.248 C 735.502 480.971, 735.385 479.832, 734.415 482.362 M 873.185 502.750 C 873.083 511.137, 873.337 518.001, 873.750 518.002 C 874.163 518.003, 874.381 513.391, 874.236 507.752 C 873.756 489.116, 873.372 487.291, 873.185 502.750 M 487.378 508 C 487.378 514.325, 487.541 516.913, 487.739 513.750 C 487.937 510.587, 487.937 505.413, 487.739 502.250 C 487.541 499.087, 487.378 501.675, 487.378 508 M 312.336 508 C 312.336 512.125, 312.513 513.813, 312.728 511.750 C 312.944 509.688, 312.944 506.313, 312.728 504.250 C 312.513 502.188, 312.336 503.875, 312.336 508 M 697.847 508.096 C 697.656 510.899, 697.831 513.712, 698.235 514.346 C 698.639 514.981, 698.976 512.688, 698.985 509.250 C 699.003 501.713, 698.327 501.028, 697.847 508.096 M 312.984 523.203 C 312.718 526.340, 312.865 528.540, 313.310 528.093 C 313.756 527.645, 313.974 525.079, 313.795 522.390 L 313.468 517.500 312.984 523.203 M 833.328 526.500 C 833.333 530.350, 833.513 531.802, 833.730 529.728 C 833.946 527.653, 833.943 524.503, 833.722 522.728 C 833.501 520.952, 833.324 522.650, 833.328 526.500 M 447.320 528 C 447.320 531.575, 447.502 533.038, 447.723 531.250 C 447.945 529.462, 447.945 526.538, 447.723 524.750 C 447.502 522.962, 447.320 524.425, 447.320 528 M 338 645.367 C 338 646.450, 342.970 656, 343.534 656 C 343.809 656, 342.847 653.638, 341.397 650.750 C 338.607 645.197, 338 644.235, 338 645.367 M 351.347 667.831 C 352.259 668.838, 352.778 669.963, 352.502 670.331 C 352.226 670.699, 352.309 670.766, 352.687 670.480 C 353.065 670.193, 355.202 671.654, 357.437 673.724 C 359.672 675.795, 359.040 674.904, 356.034 671.745 C 351.072 666.530, 347.378 663.445, 351.347 667.831 M 738.327 668.819 C 739.813 670.370, 740.797 671.945, 740.514 672.319 C 740.231 672.694, 740.296 672.779, 740.658 672.509 C 741.745 671.697, 744.029 674.138, 743.329 675.363 C 742.972 675.988, 743.052 676.162, 743.509 675.748 C 743.965 675.334, 745.274 675.769, 746.419 676.713 C 747.563 677.658, 745.814 675.634, 742.531 672.216 C 739.249 668.797, 736.352 666, 736.094 666 C 735.837 666, 736.841 667.269, 738.327 668.819 M 514.030 682.527 C 514.014 683.093, 514.622 684.443, 515.382 685.527 C 516.141 686.612, 516.816 687.837, 516.882 688.250 C 516.947 688.663, 517.189 688.888, 517.419 688.750 C 517.650 688.612, 519.113 689.619, 520.669 690.986 C 522.551 692.639, 522.286 692.136, 519.880 689.486 C 517.889 687.294, 515.765 684.600, 515.160 683.500 C 514.556 682.400, 514.047 681.962, 514.030 682.527 M 262.655 703.750 C 262.400 704.163, 267.055 704.500, 273 704.500 C 278.945 704.500, 283.600 704.163, 283.345 703.750 C 283.091 703.337, 278.435 703, 273 703 C 267.565 703, 262.909 703.337, 262.655 703.750 M 653.750 703.737 C 656.638 703.939, 661.362 703.939, 664.250 703.737 C 667.138 703.535, 664.775 703.370, 659 703.370 C 653.225 703.370, 650.862 703.535, 653.750 703.737" stroke="none" fill="#fc1c47" fill-rule="evenodd"/><path d="M 238.882 295.750 C 238.816 296.163, 238.828 296.871, 238.906 297.324 C 238.985 297.778, 238.608 297.875, 238.067 297.542 C 236.580 296.623, 234.197 302.010, 232.014 311.225 C 229.294 322.707, 227.143 337.970, 228.157 338.597 C 228.620 338.883, 228.947 340.329, 228.882 341.809 C 228.764 344.493, 228.762 344.492, 228.066 341.500 C 227.436 338.792, 227.293 339.036, 226.603 344 C 225.876 349.226, 224.598 356.601, 219.970 382.250 C 217.431 396.326, 206.998 448.335, 206.642 448.691 C 206.497 448.836, 205.574 446.716, 204.590 443.980 C 203.606 441.244, 202.437 439.230, 201.993 439.504 C 201.163 440.018, 196.684 427.983, 197.428 427.239 C 197.656 427.011, 198.650 429.386, 199.637 432.516 C 200.623 435.646, 201.565 437.805, 201.729 437.313 C 202.031 436.406, 183.364 380.957, 178.731 369 C 173.432 355.324, 166.176 339.508, 165.284 339.691 C 164.773 339.796, 164.387 338.904, 164.427 337.708 C 164.467 336.512, 163.960 335.526, 163.300 335.517 C 162.640 335.508, 161.515 334.847, 160.800 334.048 C 159.678 332.795, 159.739 332.778, 161.250 333.921 C 164.778 336.590, 162.873 333.138, 158.691 329.283 C 152.472 323.550, 146.901 321.702, 137.172 322.144 C 123.777 322.752, 122.565 325.961, 128.540 345 C 132.398 357.294, 154.475 423.301, 164.495 452.500 C 191.258 530.490, 189.425 522.653, 184.500 538 C 177.425 560.044, 173.612 570.593, 167.692 584.500 C 164.414 592.200, 161.680 599.470, 161.616 600.655 C 161.552 601.839, 161.227 602.640, 160.893 602.434 C 159.883 601.810, 146.794 630.020, 147.382 631.553 C 147.682 632.335, 147.498 632.869, 146.973 632.738 C 145.688 632.418, 134.812 656.067, 135.463 657.765 C 135.746 658.501, 135.558 658.845, 135.046 658.528 C 134.534 658.212, 133.189 660.046, 132.057 662.603 C 129.849 667.595, 129.348 670.449, 131.110 668 C 132.007 666.752, 132.089 666.808, 131.594 668.332 C 131.267 669.339, 131 670.378, 131 670.641 C 131 670.903, 130.588 670.864, 130.085 670.553 C 123.926 666.746, 126.247 683.969, 132.759 690.389 C 137.130 694.699, 140.029 696.473, 138.405 693.845 C 137.959 693.124, 138.131 692.963, 138.862 693.415 C 139.506 693.813, 139.771 694.561, 139.452 695.077 C 138.793 696.144, 145.845 699.405, 151.040 700.435 C 153.586 700.940, 154.104 700.845, 153 700.076 C 151.695 699.167, 151.717 699.029, 153.167 699.015 C 154.083 699.007, 154.983 699.416, 155.167 699.924 C 155.629 701.206, 162 698.380, 162 696.893 C 162 696.159, 161.218 696.398, 159.994 697.506 C 158.890 698.504, 157.825 699.136, 157.626 698.911 C 157.427 698.685, 158.650 697.375, 160.344 696 C 162.038 694.625, 163.018 694.175, 162.520 695 C 161.740 696.294, 161.848 696.312, 163.308 695.128 C 165.200 693.593, 165.648 691.482, 163.845 692.595 C 163.124 693.041, 162.963 692.869, 163.415 692.138 C 163.813 691.494, 164.543 691.218, 165.038 691.523 C 166.313 692.312, 174.261 676.106, 173.683 673.896 C 173.420 672.891, 173.620 672.165, 174.127 672.284 C 175.374 672.576, 182.179 656.908, 181.534 655.229 C 181.253 654.496, 181.454 654.163, 181.981 654.488 C 183.150 655.210, 186.260 648.121, 185.567 646.315 C 185.295 645.605, 185.520 645.131, 186.067 645.262 C 187.398 645.580, 194.244 630.079, 193.560 628.297 C 193.265 627.526, 193.421 627.142, 193.907 627.442 C 194.770 627.976, 200.189 616.182, 207.042 598.856 L 210.461 590.211 221.549 623.356 C 237.163 670.029, 247.262 694.138, 253.792 700.330 C 260.598 706.783, 286.229 706.896, 291.750 700.497 C 294.937 696.802, 292.786 681.960, 289.177 682.738 C 288.569 682.869, 288.284 682.419, 288.544 681.738 C 288.804 681.057, 286.958 675.775, 284.443 670 C 272.418 642.387, 249.990 581.024, 235.316 535.587 L 231.791 524.675 233.362 518.587 C 238.507 498.651, 243.294 476.043, 246.933 454.500 C 251.710 426.214, 253.664 415.112, 257.981 391.717 C 259.816 381.772, 260.854 373.420, 260.528 371.217 C 260.118 368.441, 260.217 368.006, 260.919 369.500 C 261.436 370.600, 261.891 371.155, 261.930 370.734 C 261.968 370.312, 263.117 364.354, 264.482 357.493 C 267.558 342.033, 268.911 331.063, 267.825 330.392 C 267.371 330.111, 267.085 325.971, 267.189 321.191 L 267.378 312.500 268 321.500 L 268.622 330.500 268.811 321.700 C 269.020 311.954, 267.983 308.825, 262.692 303.250 C 259.634 300.028, 257.218 298.847, 258.601 301.250 C 259.019 301.976, 258.939 302.151, 258.410 301.667 C 257.910 301.208, 257.500 300.321, 257.500 299.695 C 257.500 296.990, 239.295 293.133, 238.882 295.750 M 624.750 296.080 C 622.665 297.294, 620.021 302.151, 618.805 307 C 616.597 315.801, 614.316 330.532, 615.115 330.833 C 615.602 331.017, 615.939 332.367, 615.864 333.833 L 615.728 336.500 615.202 334 C 614.803 332.100, 614.403 332.939, 613.532 337.500 C 612.860 341.025, 612.752 343.993, 613.271 344.695 C 613.756 345.352, 613.955 346.927, 613.713 348.195 C 613.342 350.133, 613.236 350.023, 613.046 347.500 C 612.921 345.850, 611.085 353.950, 608.966 365.500 C 604.268 391.103, 595.134 438.033, 594.514 439.750 C 594.266 440.437, 594.499 441, 595.031 441 C 595.564 441, 595.968 442.012, 595.930 443.250 C 595.863 445.384, 595.818 445.397, 595.058 443.500 C 594.396 441.849, 594.103 442.244, 593.378 445.761 C 592.520 449.922, 592.236 449.237, 581.142 416.261 C 563.614 364.159, 553.246 338.969, 545.891 330.613 C 542.154 326.368, 538.905 324.302, 540.601 327.250 C 541.019 327.976, 540.939 328.151, 540.410 327.667 C 539.910 327.208, 539.500 326.328, 539.500 325.711 C 539.500 323.702, 530.815 321.881, 522.771 322.203 C 510.028 322.714, 508.611 325.640, 513.426 341.500 C 517.079 353.532, 543.119 431.520, 556.999 472 C 563.129 489.875, 569.278 508.059, 570.665 512.408 C 572.528 518.250, 573.440 519.948, 574.154 518.908 C 574.818 517.942, 574.926 518.599, 574.500 521 C 574.090 523.309, 574.197 524.038, 574.814 523.143 C 575.499 522.151, 575.750 522.515, 575.750 524.500 C 575.750 525.992, 575.451 526.729, 575.085 526.137 C 574.719 525.545, 572.717 530.560, 570.636 537.280 C 568.556 544.001, 565.055 554.607, 562.857 560.848 C 560.660 567.090, 559.112 572.851, 559.419 573.650 C 559.726 574.450, 559.580 574.858, 559.095 574.558 C 558.117 573.954, 554.595 581.928, 555.458 582.791 C 555.756 583.090, 556 582.733, 556 582 C 556 581.267, 556.236 580.902, 556.524 581.190 C 557.379 582.046, 555.869 585.037, 554.888 584.431 C 554.392 584.124, 553.687 584.689, 553.322 585.687 C 552.957 586.684, 548.899 595.583, 544.304 605.463 C 539.709 615.343, 536.181 624.029, 536.463 624.765 C 536.746 625.501, 536.602 625.872, 536.143 625.588 C 534.982 624.871, 530.595 634.535, 531.452 635.922 C 531.835 636.542, 531.666 636.926, 531.075 636.775 C 528.633 636.149, 511.307 677.104, 512.315 681.121 C 513.012 683.895, 518.983 692, 520.330 692 C 520.827 692, 519.605 690.199, 517.616 687.997 C 515.627 685.796, 514.014 683.433, 514.030 682.747 C 514.047 682.061, 514.556 682.400, 515.160 683.500 C 515.765 684.600, 517.889 687.254, 519.880 689.397 C 521.871 691.540, 522.825 692.916, 522 692.455 C 520.707 691.732, 520.690 691.850, 521.872 693.308 C 523.407 695.200, 525.518 695.648, 524.405 693.845 C 523.959 693.124, 524.131 692.963, 524.862 693.415 C 525.506 693.813, 525.771 694.561, 525.452 695.077 C 522.475 699.894, 542.699 701.654, 547.504 696.996 C 550.940 693.666, 552.206 691.188, 549.750 692.601 C 549.024 693.019, 548.849 692.939, 549.333 692.410 C 549.792 691.910, 550.692 691.492, 551.333 691.483 C 551.975 691.474, 552.467 690.483, 552.426 689.283 C 552.385 688.082, 552.704 687.317, 553.133 687.582 C 554.096 688.178, 556.012 684.530, 560.965 672.667 C 563.070 667.625, 569.702 652.475, 575.702 639 C 581.703 625.525, 588.792 609.205, 591.455 602.732 C 594.119 596.260, 596.418 591.085, 596.565 591.232 C 596.712 591.380, 601.406 605.334, 606.997 622.243 C 617.669 654.520, 627.360 679.664, 628.973 679.262 C 629.498 679.131, 629.696 679.628, 629.413 680.367 C 628.607 682.466, 633.739 693.279, 635.132 692.419 C 635.869 691.963, 636.043 692.122, 635.597 692.843 C 634.541 694.552, 637.693 699.251, 641.771 702.046 C 648.335 706.544, 677.307 705.694, 676.225 701.035 C 676.074 700.384, 676.412 700.137, 676.977 700.486 C 681.357 703.193, 680.102 691.494, 674.778 680 C 671.285 672.457, 658.145 640.151, 650.490 620.281 C 648.960 616.311, 647.366 613.274, 646.947 613.532 C 646.529 613.791, 646.391 613.215, 646.641 612.251 C 646.891 611.288, 646.360 608.475, 645.462 606 C 640.225 591.573, 629.990 561.837, 624.356 544.678 L 617.847 524.855 621.412 510.178 C 626.115 490.815, 629.220 475.371, 634.012 447.500 C 640.535 409.561, 646.957 374.239, 649.648 361.500 C 654.559 338.254, 656.297 318.459, 654.030 311.591 C 650.510 300.924, 632.664 291.471, 624.750 296.080 M 386.500 307.450 C 382.193 308.926, 379.135 309.493, 378.550 308.924 C 376.870 307.289, 375.710 307.940, 377.079 309.750 C 378.222 311.261, 378.205 311.322, 376.952 310.200 C 376.153 309.485, 375.500 308.360, 375.500 307.700 C 375.500 306.944, 373.833 306.500, 371 306.500 C 368.007 306.500, 366.580 306.907, 366.738 307.714 C 366.874 308.407, 366.349 308.687, 365.515 308.367 C 364.054 307.807, 352 318.371, 352 320.211 C 352 320.710, 352.450 320.840, 353 320.500 C 354.628 319.494, 354.140 320.642, 352.308 322.128 C 350.849 323.311, 350.738 323.294, 351.500 322 C 352.270 320.694, 352.159 320.682, 350.646 321.910 C 349.691 322.686, 349.135 323.909, 349.411 324.628 C 349.687 325.347, 349.413 326.245, 348.802 326.622 C 348.064 327.079, 347.975 326.838, 348.537 325.905 C 349.258 324.708, 349.133 324.704, 347.692 325.872 C 345.739 327.456, 345.387 329.471, 347.250 328.399 C 347.976 327.981, 348.151 328.061, 347.667 328.590 C 347.208 329.090, 346.346 329.500, 345.750 329.500 C 345.154 329.500, 344.458 330.125, 344.204 330.889 C 343.887 331.839, 344.177 332.026, 345.120 331.479 C 345.935 331.007, 346.159 331.052, 345.667 331.590 C 345.208 332.090, 344.346 332.500, 343.750 332.500 C 343.154 332.500, 342.458 333.125, 342.204 333.889 C 341.895 334.815, 342.169 335.014, 343.025 334.485 C 343.873 333.960, 344.063 334.088, 343.585 334.862 C 343.187 335.506, 342.456 335.782, 341.960 335.476 C 339.300 333.831, 322.392 375.399, 323.555 380.724 C 323.990 382.715, 323.882 383.101, 323.172 382.089 C 322.412 381.004, 321.930 381.582, 321.090 384.589 C 319.577 389.999, 314.253 416.515, 313.578 422 C 311.704 437.224, 311.004 448.139, 310.655 467.587 C 310.414 481.010, 310.521 485.238, 310.931 478.500 L 311.601 467.500 311.801 479.250 C 311.927 486.712, 311.627 491, 310.978 491 C 310.335 491, 310.140 493.500, 310.450 497.750 C 310.722 501.462, 311.281 509.900, 311.692 516.500 C 312.350 527.036, 312.516 527.829, 313.057 523 L 313.674 517.500 313.837 522.691 C 313.927 525.546, 313.635 528.108, 313.188 528.384 C 310.983 529.747, 318.230 580.771, 324.141 605.500 C 327.234 618.440, 328.828 623.158, 329.040 620 C 329.167 618.101, 330.859 621.821, 330.859 624 C 330.859 624.945, 330.542 624.761, 330 623.500 C 329.287 621.840, 329.129 621.791, 329.070 623.212 C 328.962 625.841, 333.045 636.090, 333.972 635.518 C 334.422 635.239, 335.063 635.721, 335.395 636.588 C 336.303 638.954, 336.096 639.695, 335 638 C 334.229 636.806, 334.027 636.783, 334.015 637.884 C 333.987 640.488, 342.935 658.158, 343.961 657.524 C 344.533 657.171, 344.744 657.503, 344.445 658.283 C 344.152 659.046, 344.866 660.757, 346.032 662.085 C 347.198 663.413, 347.867 663.938, 347.517 663.250 C 346.607 661.458, 347.519 661.709, 349.128 663.692 C 350.060 664.842, 350.099 665.143, 349.250 664.633 C 346.890 663.215, 348.007 665.189, 352.621 670.591 C 355.163 673.566, 357.734 676, 358.334 676 C 358.934 676, 357.192 673.638, 354.463 670.750 L 349.501 665.500 355.226 670.941 C 358.374 673.934, 360.741 676.593, 360.484 676.849 C 359.853 677.481, 362.010 680, 363.181 680 C 363.697 680, 363.794 679.438, 363.399 678.750 C 362.981 678.024, 363.061 677.849, 363.590 678.333 C 364.090 678.792, 364.500 679.654, 364.500 680.250 C 364.500 680.846, 365.125 681.542, 365.889 681.796 C 366.815 682.105, 367.014 681.831, 366.485 680.975 C 365.960 680.127, 366.088 679.937, 366.862 680.415 C 367.506 680.813, 367.784 681.541, 367.479 682.033 C 366.764 683.190, 375.039 687.377, 382.043 689.401 C 395.857 693.395, 418.505 690.877, 426.560 684.451 C 428.204 683.139, 427.990 683.151, 425.157 684.525 C 423.318 685.418, 421.641 685.974, 421.429 685.762 C 421.217 685.551, 423.092 684.382, 425.595 683.166 C 428.098 681.950, 429.825 681.474, 429.434 682.107 C 428.995 682.818, 429.254 683.082, 430.111 682.796 C 430.875 682.542, 431.500 681.846, 431.500 681.250 C 431.500 680.654, 431.910 679.792, 432.410 679.333 C 432.939 678.849, 433.019 679.024, 432.601 679.750 C 431.529 681.613, 433.544 681.261, 435.128 679.308 C 436.060 678.158, 436.099 677.857, 435.250 678.367 C 433.428 679.462, 433.721 678.471, 435.692 676.872 C 436.842 675.940, 437.143 675.901, 436.633 676.750 C 434.922 679.597, 437.801 677.644, 443.221 672.281 C 448.576 666.982, 450.704 663.858, 447.750 665.633 C 446.923 666.130, 446.971 665.803, 447.893 664.668 C 448.658 663.724, 449.517 663.184, 449.800 663.467 C 450.468 664.135, 453 662.039, 453 660.819 C 453 660.303, 452.438 660.206, 451.750 660.601 C 451.024 661.019, 450.849 660.939, 451.333 660.410 C 451.792 659.910, 452.654 659.500, 453.250 659.500 C 453.846 659.500, 454.542 658.875, 454.796 658.111 C 455.105 657.185, 454.831 656.986, 453.975 657.515 C 453.127 658.040, 452.937 657.912, 453.415 657.138 C 453.813 656.494, 454.530 656.209, 455.008 656.505 C 457.038 657.760, 466.169 638.267, 472.485 619.199 C 478.138 602.132, 484.155 571.465, 486.455 548 C 486.805 544.425, 487.344 539.250, 487.653 536.500 C 490.418 511.843, 489.750 450.228, 486.422 423 C 485.649 416.675, 484.968 411.050, 484.908 410.500 C 484.849 409.950, 484.440 410.625, 484 412 L 483.199 414.500 483.100 411.833 C 483.045 410.367, 483.385 409.017, 483.856 408.833 C 487.169 407.543, 470.610 349.971, 467.147 350.738 C 466.556 350.869, 466.313 350.347, 466.608 349.578 C 467.285 347.814, 464.221 341.745, 463.027 342.484 C 462.538 342.786, 461.813 342.506, 461.415 341.862 C 460.963 341.131, 461.124 340.959, 461.845 341.405 C 463.280 342.291, 463.315 341.457, 461.950 338.906 C 461.372 337.827, 460.503 337.189, 460.019 337.488 C 459.535 337.788, 458.813 337.506, 458.415 336.862 C 457.963 336.131, 458.124 335.959, 458.845 336.405 C 460.897 337.673, 460.069 335.369, 457.767 333.405 C 455.557 331.519, 455.549 331.520, 457.017 333.500 C 458.388 335.349, 458.369 335.397, 456.761 334.137 C 455.805 333.387, 455.269 332.374, 455.570 331.886 C 456.224 330.829, 448.152 321, 446.631 321 C 446.050 321, 447.791 323.250, 450.500 326 C 453.209 328.750, 455.203 331, 454.931 331 C 454.660 331, 451.751 328.213, 448.469 324.806 C 445.186 321.399, 443.400 319.199, 444.500 319.917 C 445.600 320.634, 444.933 319.814, 443.017 318.093 C 441.101 316.373, 438.978 315.178, 438.299 315.439 C 437.620 315.699, 436.755 315.413, 436.378 314.802 C 435.933 314.082, 436.152 313.976, 437 314.500 C 437.869 315.037, 438.068 314.919, 437.591 314.147 C 436.065 311.678, 420 305.200, 420 307.054 C 420 307.574, 418.988 307.968, 417.750 307.930 C 415.670 307.865, 415.647 307.802, 417.446 307.098 C 425.491 303.950, 395.726 304.289, 386.500 307.450 M 775.197 306.559 C 772.281 307.344, 768.970 308.481, 767.840 309.086 C 766.354 309.881, 765.483 309.883, 764.693 309.093 C 762.913 307.313, 761.637 307.849, 763.128 309.750 C 764.366 311.329, 764.332 311.368, 762.782 310.154 C 761.837 309.414, 761.162 308.289, 761.282 307.654 C 761.421 306.921, 759.860 306.500, 757 306.500 C 754.007 306.500, 752.580 306.907, 752.738 307.714 C 752.869 308.382, 752.355 308.690, 751.595 308.398 C 750.158 307.847, 737 319.421, 737 321.237 C 737 321.791, 737.788 321.635, 738.750 320.890 C 740.175 319.786, 740.146 319.950, 738.595 321.767 C 736.569 324.142, 735.407 324.768, 736.595 322.845 C 737.036 322.132, 736.870 321.962, 736.160 322.401 C 735.528 322.792, 734.485 324.099, 733.842 325.306 C 732.741 327.371, 732.785 327.412, 734.586 326 C 736.356 324.613, 736.396 324.632, 735.128 326.250 C 734.373 327.212, 733.183 328, 732.485 328 C 730.941 328, 729.742 330.774, 730.651 332.245 C 731.028 332.855, 730.838 333.018, 730.205 332.627 C 728.837 331.781, 726.647 335.619, 727.608 337.175 C 728.015 337.833, 727.865 338.035, 727.252 337.656 C 725.907 336.824, 721.717 343.820, 722.437 345.696 C 722.734 346.471, 722.595 346.868, 722.128 346.579 C 720.906 345.824, 717.626 353.587, 718.542 355.068 C 719.017 355.836, 718.899 356.055, 718.231 355.643 C 717.132 354.964, 715.524 358.674, 710.708 373 C 706.158 386.536, 704.180 394.465, 705.106 395.450 C 705.598 395.973, 705.968 397.098, 705.930 397.950 C 705.881 399.026, 705.617 398.889, 705.065 397.500 C 704.441 395.929, 704.036 396.680, 703.176 401 C 699.822 417.846, 698.100 430.944, 699.155 431.596 C 699.620 431.883, 699.936 434.004, 699.858 436.309 L 699.716 440.500 699 436.500 L 698.284 432.500 698.106 436 C 698.008 437.925, 697.724 441.975, 697.474 445 C 696.383 458.213, 696.306 462.071, 697.126 462.578 C 698.262 463.280, 698.271 495.715, 697.135 496.416 C 696.660 496.710, 696.377 497.974, 696.508 499.225 C 696.638 500.476, 696.873 503.975, 697.029 507 L 697.314 512.500 698 507.500 L 698.686 502.500 698.828 509 C 698.928 513.588, 698.679 515.059, 697.981 514 C 696.950 512.435, 697.131 516.278, 699.066 537 C 701.766 565.913, 709.226 607.826, 711.136 604.815 C 711.765 603.823, 711.973 603.930, 711.985 605.250 C 711.993 606.212, 711.564 607, 711.031 607 C 710.499 607, 710.336 607.713, 710.671 608.584 C 711.160 609.859, 711.443 609.908, 712.124 608.834 C 712.771 607.812, 712.973 607.910, 712.985 609.250 C 712.993 610.212, 712.610 611, 712.134 611 C 711.146 611, 713.777 621.049, 717.578 631.790 C 722.043 644.410, 725.706 652.509, 726.837 652.262 C 727.437 652.131, 727.689 652.648, 727.396 653.411 C 727.103 654.174, 727.414 655.138, 728.086 655.553 C 728.868 656.037, 729.052 655.893, 728.595 655.155 C 728.203 654.520, 728.118 654, 728.406 654 C 728.694 654, 729.440 654.954, 730.065 656.121 C 730.862 657.611, 730.873 658.039, 730.100 657.562 C 728.337 656.473, 728.833 658.620, 730.692 660.128 C 732.133 661.296, 732.258 661.292, 731.537 660.095 C 730.975 659.162, 731.064 658.921, 731.802 659.378 C 732.413 659.755, 732.677 660.679, 732.388 661.431 C 732.100 662.183, 732.414 663.138, 733.086 663.553 C 733.920 664.068, 734.051 663.892, 733.500 663 C 732.976 662.152, 733.082 661.933, 733.802 662.378 C 734.413 662.755, 734.687 663.653, 734.411 664.372 C 734.135 665.091, 734.691 666.314, 735.646 667.090 C 737.159 668.317, 737.276 668.305, 736.552 667 C 736.095 666.175, 738.484 668.186, 741.860 671.469 C 745.237 674.751, 748 677.652, 748 677.915 C 748 678.177, 746.425 676.866, 744.500 675 C 742.575 673.134, 741.008 672.033, 741.018 672.554 C 741.037 673.537, 748.391 680, 749.492 680 C 749.836 680, 749.794 679.438, 749.399 678.750 C 748.981 678.024, 749.061 677.849, 749.590 678.333 C 750.090 678.792, 750.500 679.654, 750.500 680.250 C 750.500 680.846, 751.125 681.542, 751.889 681.796 C 752.815 682.105, 753.014 681.831, 752.485 680.975 C 751.960 680.127, 752.088 679.937, 752.862 680.415 C 753.506 680.813, 753.766 681.570, 753.440 682.097 C 751.645 685.001, 772.860 691.400, 784 691.316 C 795.021 691.233, 814 686.307, 814 683.529 C 814 683.210, 812.608 683.668, 810.907 684.548 C 809.206 685.428, 807.641 685.974, 807.429 685.762 C 807.217 685.551, 809.092 684.382, 811.595 683.166 C 814.098 681.950, 815.825 681.474, 815.434 682.107 C 814.995 682.818, 815.254 683.082, 816.111 682.796 C 816.875 682.542, 817.500 681.846, 817.500 681.250 C 817.500 680.654, 817.910 679.792, 818.410 679.333 C 818.939 678.849, 819.019 679.024, 818.601 679.750 C 817.529 681.613, 819.544 681.261, 821.128 679.308 C 822.311 677.849, 822.293 677.735, 821 678.480 C 820.063 679.020, 820.214 678.529, 821.405 677.172 C 823.533 674.746, 824.952 674.148, 823 676.500 C 819.934 680.195, 824.074 677.488, 828.784 672.719 C 833.734 667.706, 835.482 665.015, 832.750 666.613 C 832.063 667.015, 832.357 666.366, 833.405 665.172 C 835.641 662.623, 836.880 662.217, 834.872 664.692 C 833.967 665.808, 833.921 666.131, 834.737 665.641 C 836.878 664.355, 842.137 656.030, 841.479 654.967 C 841.134 654.408, 841.404 654.074, 842.080 654.225 C 845.556 655.002, 857.907 623.874, 863.596 600 C 868.292 580.296, 868.165 581, 867.019 581 C 866.459 581, 866.032 579.987, 866.070 578.750 C 866.137 576.619, 866.182 576.606, 866.929 578.500 C 867.629 580.278, 867.788 580.167, 868.355 577.500 C 871.068 564.753, 875.446 518.656, 873.990 518.167 C 873.382 517.962, 873.081 511.981, 873.209 502.667 L 873.418 487.500 873.965 502.500 L 874.511 517.500 875.014 500.500 C 875.688 477.675, 874.454 439.368, 872.549 424.030 C 871.697 417.171, 870.947 411.096, 870.882 410.530 C 870.817 409.963, 870.420 410.850, 870 412.500 L 869.237 415.500 869.118 412.809 C 869.053 411.329, 869.381 409.883, 869.846 409.595 C 871.499 408.574, 865.210 380.376, 859.936 365.153 C 855.043 351.032, 845.025 332.248, 843.041 333.475 C 842.545 333.781, 841.813 333.506, 841.415 332.862 C 840.963 332.131, 841.124 331.959, 841.845 332.405 C 844.077 333.784, 842.970 331.322, 840.280 328.924 C 838.215 327.083, 837.901 326.981, 838.976 328.500 C 839.754 329.600, 837.828 328.040, 834.696 325.034 C 831.563 322.028, 829 319.347, 829 319.076 C 829 318.805, 831.025 320.571, 833.500 323 C 835.975 325.429, 838 326.985, 838 326.458 C 837.999 325.931, 835.778 323.587, 833.064 321.250 C 828.290 317.139, 826.221 315.930, 827.500 318 C 828.506 319.628, 827.358 319.140, 825.872 317.308 C 824.689 315.849, 824.706 315.738, 826 316.500 C 827.294 317.262, 827.311 317.151, 826.128 315.692 C 824.593 313.800, 822.482 313.352, 823.595 315.155 C 824.041 315.876, 823.869 316.037, 823.138 315.585 C 822.494 315.187, 822.232 314.433, 822.556 313.909 C 823.305 312.698, 814.313 308.565, 806.540 306.547 C 799.088 304.613, 782.405 304.619, 775.197 306.559 M 399.784 306.738 C 402.689 306.941, 407.189 306.939, 409.784 306.734 C 412.378 306.528, 410 306.363, 404.500 306.365 C 399 306.368, 396.878 306.536, 399.784 306.738 M 785.784 306.738 C 788.689 306.941, 793.189 306.939, 795.784 306.734 C 798.378 306.528, 796 306.363, 790.500 306.365 C 785 306.368, 782.878 306.536, 785.784 306.738 M 653.336 321 C 653.336 325.125, 653.513 326.813, 653.728 324.750 C 653.944 322.688, 653.944 319.313, 653.728 317.250 C 653.513 315.188, 653.336 316.875, 653.336 321 M 134.728 323.722 C 136.503 323.943, 139.653 323.946, 141.728 323.730 C 143.802 323.513, 142.350 323.333, 138.500 323.328 C 134.650 323.324, 132.952 323.501, 134.728 323.722 M 520.728 323.722 C 522.503 323.943, 525.653 323.946, 527.728 323.730 C 529.802 323.513, 528.350 323.333, 524.500 323.328 C 520.650 323.324, 518.952 323.501, 520.728 323.722 M 400.701 339.325 C 401.071 339.924, 400.684 340.093, 399.758 339.737 C 398.830 339.381, 397.434 339.996, 396.344 341.239 C 395.330 342.397, 395.063 343.015, 395.750 342.613 C 396.438 342.211, 397 342.303, 397 342.819 C 397 343.896, 393.907 346.667, 393.263 346.167 C 393.027 345.983, 392.533 346.168, 392.167 346.577 C 391.800 346.986, 392.063 346.997, 392.750 346.601 C 394.276 345.723, 394.338 346.500, 392.950 349.094 C 392.372 350.173, 391.477 350.795, 390.961 350.476 C 390.445 350.157, 390.277 350.559, 390.588 351.370 C 391.349 353.351, 389.183 357.231, 387.795 356.373 C 387.121 355.957, 386.975 356.150, 387.418 356.868 C 388.663 358.882, 377.548 389.456, 375.933 388.459 C 375.433 388.149, 375.277 388.559, 375.588 389.370 C 376.227 391.035, 374.281 395.292, 373.189 394.617 C 372.798 394.375, 371.609 394.812, 370.548 395.589 C 369.486 396.365, 369.064 397, 369.609 397 C 370.154 397, 371.140 396.460, 371.800 395.800 C 372.603 394.997, 373 394.962, 373 395.693 C 373 398.032, 366.506 399.349, 361.036 398.119 C 358.816 397.621, 356.999 397.277, 356.997 397.356 C 356.995 397.435, 356.121 402, 355.054 407.500 C 351.459 426.035, 349.916 442.279, 349.674 464.154 C 349.578 472.764, 349.163 479.600, 348.750 479.345 C 348.337 479.090, 348.079 482.396, 348.177 486.691 L 348.353 494.500 348.927 487.500 C 349.416 481.521, 349.693 483.417, 350.822 500.500 C 355.749 575.028, 368.651 635.050, 383.080 650.564 C 385.481 653.146, 385.593 654.697, 383.250 652.911 C 382.288 652.177, 382.822 653.022, 384.437 654.788 C 387.337 657.960, 388.702 658.945, 387.500 657 C 386.630 655.593, 387.620 655.752, 391.179 657.593 C 394.263 659.188, 399.613 659.144, 403.414 657.492 C 404.913 656.841, 405.149 656.968, 404.504 658.080 C 404.015 658.922, 404.050 659.161, 404.590 658.667 C 405.090 658.208, 405.507 657.533, 405.515 657.167 C 405.545 655.881, 407.128 654, 408.181 654 C 408.822 654, 408.705 654.697, 407.890 655.750 C 406.793 657.167, 406.961 657.136, 408.773 655.589 C 410.005 654.539, 410.780 653.447, 410.497 653.164 C 409.778 652.445, 414.126 647.960, 415.012 648.507 C 415.408 648.752, 416.580 647.986, 417.616 646.805 C 418.652 645.623, 418.938 644.985, 418.250 645.387 C 416.385 646.478, 416.740 644.456, 418.692 642.872 C 420.133 641.704, 420.258 641.708, 419.537 642.905 C 418.959 643.865, 419.061 644.080, 419.862 643.585 C 420.506 643.187, 420.779 642.452, 420.470 641.952 C 419.675 640.665, 421.904 636.823, 423.039 637.524 C 423.569 637.852, 423.691 637.357, 423.319 636.388 C 422.875 635.231, 423.038 634.905, 423.819 635.388 C 424.599 635.870, 424.762 635.544, 424.319 634.388 C 423.926 633.363, 424.061 632.919, 424.654 633.286 C 425.204 633.626, 425.615 632.918, 425.574 631.700 C 425.530 630.376, 426.028 629.609, 426.824 629.775 C 427.558 629.927, 427.850 629.566, 427.478 628.964 C 426.539 627.445, 429.005 621.885, 430.271 622.667 C 430.885 623.047, 431.007 622.821, 430.570 622.113 C 430.163 621.455, 430.734 617.898, 431.838 614.208 C 432.943 610.519, 434.369 605.510, 435.008 603.078 C 435.861 599.832, 436.409 599.035, 437.069 600.078 C 437.641 600.981, 437.975 601.065, 437.985 600.309 C 437.993 599.654, 437.597 598.869, 437.105 598.565 C 436.587 598.245, 436.659 596.243, 437.275 593.815 C 438.144 590.392, 438.480 589.976, 439.100 591.559 C 439.728 593.164, 439.872 593.207, 439.930 591.809 C 439.968 590.879, 439.619 589.883, 439.154 589.595 C 438.689 589.308, 439.123 584.894, 440.118 579.786 C 453.251 512.374, 446.361 397.781, 426.826 358.710 C 425.234 355.526, 424.169 352.535, 424.460 352.064 C 424.751 351.594, 424.107 350.149, 423.028 348.854 C 421.949 347.559, 421.052 346.922, 421.033 347.437 C 421.015 347.952, 419.666 347.096, 418.036 345.534 C 416.405 343.972, 415.287 342.344, 415.552 341.916 C 415.816 341.488, 415.506 340.813, 414.862 340.415 C 414.131 339.963, 413.959 340.124, 414.405 340.845 C 415.295 342.287, 414.456 342.314, 411.868 340.929 C 408.941 339.363, 399.924 338.068, 400.701 339.325 M 790.564 339.061 C 787.848 339.516, 785.326 339.702, 784.959 339.475 C 784.591 339.247, 783.213 340.245, 781.895 341.692 C 780.578 343.139, 780.121 343.962, 780.880 343.522 C 781.824 342.974, 782.113 343.160, 781.796 344.111 C 781.542 344.875, 780.846 345.500, 780.250 345.500 C 779.654 345.500, 778.792 345.910, 778.333 346.410 C 777.841 346.948, 778.065 346.993, 778.880 346.521 C 779.829 345.971, 780.102 346.155, 779.755 347.111 C 779.477 347.875, 778.710 348.376, 778.051 348.225 C 777.391 348.074, 777.116 348.378, 777.438 348.900 C 778.295 350.287, 775.887 355.048, 774.699 354.314 C 774.131 353.963, 773.999 354.189, 774.397 354.833 C 774.785 355.461, 773.994 359.018, 772.639 362.737 C 768.970 372.812, 768.863 373.033, 767.907 372.442 C 767.421 372.142, 767.262 372.519, 767.554 373.279 C 768.328 375.298, 762.169 391.645, 759.388 394.950 C 756.619 398.241, 751.918 399.411, 747.059 398.017 C 745.174 397.476, 743.513 397.154, 743.367 397.300 C 741.631 399.036, 736.440 434.182, 735.878 448 L 735.655 453.500 735 447 L 734.345 440.500 734.173 446.583 C 734.078 449.929, 734.315 452.982, 734.700 453.366 C 735.677 454.344, 735.765 481.027, 734.793 481.628 C 734.357 481.898, 734.079 485.129, 734.177 488.809 L 734.353 495.500 735 488.500 C 735.591 482.100, 735.662 481.929, 735.823 486.510 C 736.407 503.074, 741.760 557.492, 743.907 568.694 C 744.382 571.170, 744.322 573.278, 743.762 573.838 C 743.240 574.360, 743.027 575.623, 743.290 576.644 C 743.663 578.091, 743.821 577.949, 744.007 576 C 744.138 574.625, 745.012 577.325, 745.947 582 C 746.883 586.675, 747.278 590.650, 746.825 590.833 C 746.371 591.017, 746.007 591.917, 746.015 592.833 C 746.028 594.230, 746.179 594.266, 746.947 593.052 C 747.672 591.905, 747.976 592.113, 748.405 594.052 C 753.636 617.638, 757.501 630.037, 762.883 640.500 C 767.549 649.572, 767.489 649.411, 765.880 648.479 C 765.065 648.007, 764.841 648.052, 765.333 648.590 C 765.792 649.090, 766.692 649.511, 767.333 649.524 C 767.975 649.537, 768.443 650.294, 768.373 651.205 C 768.303 652.116, 769.610 654.130, 771.277 655.680 C 772.945 657.231, 773.988 657.938, 773.596 657.250 C 772.651 655.595, 773.468 655.674, 777.179 657.593 C 780.263 659.188, 785.613 659.144, 789.414 657.492 C 790.775 656.901, 791.119 656.998, 790.605 657.830 C 789.515 659.594, 790.566 659.234, 792.128 657.308 C 793.296 655.867, 793.292 655.742, 792.095 656.463 C 791.113 657.054, 790.918 656.941, 791.447 656.086 C 791.862 655.414, 792.790 655.089, 793.507 655.364 C 794.225 655.640, 795.642 654.883, 796.656 653.683 L 798.500 651.500 796 653.484 C 793.872 655.173, 793.932 654.993, 796.403 652.270 C 798 650.511, 799.627 649.270, 800.019 649.512 C 800.412 649.754, 801.580 648.986, 802.616 647.805 C 803.652 646.623, 803.938 645.985, 803.250 646.387 C 802.563 646.789, 802 646.668, 802 646.118 C 802 645.117, 803.913 643.544, 805.167 643.515 C 805.533 643.507, 806.208 643.090, 806.667 642.590 C 807.159 642.052, 806.935 642.007, 806.120 642.479 C 804.533 643.398, 804.572 643.286, 808.291 636.213 C 809.820 633.305, 811.500 631.191, 812.024 631.515 C 812.548 631.839, 812.743 631.494, 812.457 630.749 C 811.793 629.019, 814.788 621.751, 815.885 622.429 C 816.339 622.709, 816.715 621.715, 816.722 620.219 C 816.729 618.724, 818.303 611.875, 820.220 605 C 822.137 598.125, 824.545 588.027, 825.572 582.560 C 826.956 575.187, 827.614 573.250, 828.119 575.060 C 828.758 577.348, 828.807 577.364, 828.900 575.309 C 828.955 574.104, 828.610 572.877, 828.134 572.583 C 827.658 572.289, 827.516 570.799, 827.819 569.274 L 828.369 566.500 829.085 569 L 829.801 571.500 829.900 568.750 C 829.955 567.237, 829.618 566, 829.151 566 C 828.685 566, 828.653 563.638, 829.080 560.750 C 829.781 556.016, 830.627 547.709, 831.090 541 C 831.231 538.967, 831.401 539.154, 832 542 L 832.737 545.500 832.868 541.191 C 832.953 538.419, 832.627 537.113, 831.954 537.528 C 831.240 537.970, 831.153 536.479, 831.679 532.837 C 832.961 523.970, 832.331 458.895, 830.822 444.222 C 830.070 436.919, 829.838 430.562, 830.306 430.094 C 830.774 429.626, 830.964 427.951, 830.728 426.372 C 830.324 423.661, 830.285 423.697, 830.033 427 C 829.872 429.120, 829.079 425.967, 828.020 419 C 827.059 412.675, 826.662 407.350, 827.137 407.167 C 827.611 406.983, 827.968 405.858, 827.930 404.667 C 827.866 402.702, 827.791 402.674, 827.125 404.369 C 826.156 406.835, 820.850 381.426, 821.617 377.991 C 822.029 376.145, 821.914 375.868, 821.172 376.922 C 820.401 378.015, 819.900 377.344, 819.004 374.015 C 818.052 370.480, 815.452 364.555, 809.172 351.611 C 808.935 351.122, 809.361 351.081, 810.120 351.521 C 810.935 351.993, 811.159 351.948, 810.667 351.410 C 810.208 350.910, 809.346 350.500, 808.750 350.500 C 808.154 350.500, 807.458 349.875, 807.204 349.111 C 806.883 348.150, 807.166 347.978, 808.120 348.553 C 809.288 349.256, 809.291 349.126, 808.137 347.703 C 807.387 346.778, 806.435 346.231, 806.020 346.487 C 805.106 347.052, 801.778 343.555, 802.522 342.811 C 802.811 342.522, 802.276 341.658, 801.332 340.893 C 800.197 339.971, 799.870 339.923, 800.367 340.750 C 801.299 342.302, 800.787 342.316, 797.519 340.827 C 795.655 339.977, 795.296 339.429, 796.222 338.842 C 797.681 337.916, 797.327 337.929, 790.564 339.061 M 336.949 345.101 C 335.255 348.457, 334.034 351.367, 334.236 351.569 C 334.437 351.771, 336.038 349.025, 337.792 345.468 C 339.546 341.911, 340.767 339, 340.505 339 C 340.243 339, 338.643 341.746, 336.949 345.101 M 348.336 450 C 348.336 454.125, 348.513 455.813, 348.728 453.750 C 348.944 451.688, 348.944 448.313, 348.728 446.250 C 348.513 444.188, 348.336 445.875, 348.336 450 M 698.310 450.500 C 698.315 453.800, 698.502 455.029, 698.725 453.232 C 698.947 451.435, 698.943 448.735, 698.715 447.232 C 698.486 445.729, 698.304 447.200, 698.310 450.500 M 312.328 452.500 C 312.333 456.350, 312.513 457.802, 312.730 455.728 C 312.946 453.653, 312.943 450.503, 312.722 448.728 C 312.501 446.952, 312.324 448.650, 312.328 452.500 M 487.370 459 C 487.370 464.775, 487.535 467.137, 487.737 464.250 C 487.939 461.363, 487.939 456.637, 487.737 453.750 C 487.535 450.863, 487.370 453.225, 487.370 459 M 873.395 463.500 C 873.396 471.200, 873.553 474.218, 873.743 470.206 C 873.934 466.195, 873.932 459.895, 873.741 456.206 C 873.549 452.518, 873.393 455.800, 873.395 463.500 M 447.310 458.500 C 447.315 461.800, 447.502 463.029, 447.725 461.232 C 447.947 459.435, 447.943 456.735, 447.715 455.232 C 447.486 453.729, 447.304 455.200, 447.310 458.500 M 833.328 460.500 C 833.333 464.350, 833.513 465.802, 833.730 463.728 C 833.946 461.653, 833.943 458.503, 833.722 456.728 C 833.501 454.952, 833.324 456.650, 833.328 460.500 M 696.405 479.500 C 696.406 488.300, 696.559 491.766, 696.745 487.203 C 696.930 482.639, 696.929 475.439, 696.742 471.203 C 696.555 466.966, 696.404 470.700, 696.405 479.500 M 448.423 493.500 C 448.424 505.050, 448.570 509.638, 448.747 503.696 C 448.924 497.753, 448.923 488.303, 448.745 482.696 C 448.567 477.088, 448.422 481.950, 448.423 493.500 M 834.411 494 C 834.411 503.625, 834.561 507.563, 834.745 502.750 C 834.928 497.938, 834.928 490.063, 834.745 485.250 C 834.561 480.438, 834.411 484.375, 834.411 494 M 487.378 508 C 487.378 514.325, 487.541 516.913, 487.739 513.750 C 487.937 510.587, 487.937 505.413, 487.739 502.250 C 487.541 499.087, 487.378 501.675, 487.378 508 M 312.336 508 C 312.336 512.125, 312.513 513.813, 312.728 511.750 C 312.944 509.688, 312.944 506.313, 312.728 504.250 C 312.513 502.188, 312.336 503.875, 312.336 508 M 833.328 526.500 C 833.333 530.350, 833.513 531.802, 833.730 529.728 C 833.946 527.653, 833.943 524.503, 833.722 522.728 C 833.501 520.952, 833.324 522.650, 833.328 526.500 M 447.320 528 C 447.320 531.575, 447.502 533.038, 447.723 531.250 C 447.945 529.462, 447.945 526.538, 447.723 524.750 C 447.502 522.962, 447.320 524.425, 447.320 528 M 338 645.367 C 338 646.450, 342.970 656, 343.534 656 C 343.809 656, 342.847 653.638, 341.397 650.750 C 338.607 645.197, 338 644.235, 338 645.367 M 267.750 703.737 C 270.637 703.939, 275.363 703.939, 278.250 703.737 C 281.137 703.535, 278.775 703.370, 273 703.370 C 267.225 703.370, 264.863 703.535, 267.750 703.737 M 653.750 703.737 C 656.638 703.939, 661.362 703.939, 664.250 703.737 C 667.138 703.535, 664.775 703.370, 659 703.370 C 653.225 703.370, 650.862 703.535, 653.750 703.737" stroke="none" fill="#fc1444" fill-rule="evenodd"/></svg>