<svg xmlns="http://www.w3.org/2000/svg" width="1061" height="1061" viewBox="0 0 1061 1061" version="1.1"><path d="" stroke="none" fill="#fc1c44" fill-rule="evenodd"/><path d="M 251.614 316.047 C 247.538 320.891, 245.615 328.915, 241.039 360.177 C 236.347 392.235, 219.630 478.692, 218.644 476 C 218.342 475.175, 212.636 458.300, 205.964 438.500 C 188.458 386.545, 177.422 359.600, 170.052 350.814 C 168.351 348.786, 164.473 345.911, 161.434 344.424 C 156.859 342.186, 154.499 341.709, 147.705 341.649 C 138.346 341.567, 133.428 343.446, 132.413 347.491 C 131.504 351.113, 137.310 369.887, 161.079 440.175 C 172.670 474.454, 186.245 514.665, 191.244 529.534 L 200.333 556.567 193.072 579.034 C 185.631 602.058, 178.759 619.856, 170.497 637.500 C 142.290 697.743, 133.998 716.698, 134.004 720.915 C 134.017 729.928, 151.056 743, 162.792 743 C 167.736 743, 168.578 742.667, 171.520 739.548 C 175.921 734.882, 179.140 728.979, 185.999 713 C 189.186 705.575, 195.926 690.275, 200.977 679 C 208.646 661.882, 217.026 642.178, 222.138 629.246 C 223.121 626.759, 224.334 629.806, 234.981 661.500 C 251.243 709.913, 262.029 735.962, 268.484 742.418 C 273.093 747.027, 278.671 748.298, 292.179 747.819 C 304.962 747.365, 308.954 745.939, 310.953 741.113 C 312.626 737.073, 311.779 733.775, 305.275 719.006 C 290.432 685.305, 270.468 631.343, 250.094 569.853 L 245.903 557.206 249.933 540.853 C 254.856 520.882, 258.917 500.048, 267.546 450.500 C 271.186 429.600, 276.141 402.375, 278.556 390 C 284.147 361.357, 284.937 355.603, 285.111 342.279 C 285.273 329.849, 284.423 327.350, 277.872 320.991 C 273.210 316.467, 264.827 313, 258.551 313 C 254.904 313, 253.752 313.506, 251.614 316.047 M 662.319 314.432 C 658.095 317.502, 654.689 330.239, 651.046 356.587 C 648.501 374.988, 643.511 402.653, 635.289 443.943 L 628.629 477.386 627.178 472.943 C 619.901 450.664, 601.791 398.817, 597.357 387.569 C 588.015 363.872, 582.822 353.924, 577.116 348.794 C 571.126 343.409, 565.357 341.495, 555.269 341.545 C 546.378 341.590, 542.669 343.747, 542.202 349.145 C 541.764 354.205, 548.587 375.788, 579.322 466.562 C 594.394 511.078, 607.387 549.522, 608.194 551.993 C 609.608 556.322, 609.538 556.886, 606.261 567.493 C 597.395 596.188, 589.519 617.060, 579.466 638.500 C 563.060 673.489, 549.310 703.733, 546.320 711.408 C 542.866 720.272, 542.857 720.337, 544.497 724.630 C 547.936 733.636, 562.120 743, 572.322 743 C 582 743, 583.270 740.882, 609.782 680.500 C 617.992 661.800, 626.434 642.093, 628.541 636.707 C 631.312 629.624, 632.607 627.334, 633.223 628.433 C 633.691 629.270, 638.778 644.157, 644.529 661.517 C 660.708 710.357, 671.821 737.002, 678.435 742.808 C 683.097 746.902, 687.517 747.989, 699.500 747.989 C 711.485 747.989, 716.188 746.841, 719.060 743.216 C 722.189 739.264, 721.198 732.730, 715.691 721 C 704.715 697.623, 690.399 659.789, 669.494 598.914 L 655.213 557.328 658.022 546.414 C 662.712 528.193, 667.647 504.013, 673.005 473 C 679.505 435.372, 687.247 392.901, 690.412 377.500 C 694.874 355.787, 696.214 335.840, 693.625 329.645 C 691.512 324.587, 686.205 319.138, 680.653 316.324 C 674.295 313.102, 665.409 312.185, 662.319 314.432 M 418.341 324.029 C 415.504 324.540, 410.833 325.883, 407.961 327.016 C 403.265 328.866, 402.569 328.920, 401.055 327.549 C 400.128 326.711, 397.942 325.527, 396.195 324.918 C 391.497 323.280, 385.481 326.602, 377.461 335.265 C 344.534 370.830, 326.971 439.207, 329.381 522.456 C 331.850 607.712, 348.261 680.105, 371.509 708.290 C 387.112 727.206, 408.853 736.238, 431.244 733.105 C 446.205 731.012, 456.433 725.983, 468.469 714.800 C 495.524 689.665, 512.568 636.295, 517.964 559.813 C 519.298 540.906, 519.294 485.583, 517.957 467.500 C 515.090 428.710, 506.923 392.794, 496.008 370.972 C 483.691 346.347, 466.715 330.581, 447.057 325.508 C 439.217 323.485, 425.341 322.770, 418.341 324.029 M 827.182 324.051 C 824.257 324.575, 819.627 325.965, 816.894 327.141 L 811.925 329.278 809.713 327.213 C 804.189 322.058, 798.087 323.863, 788.500 333.488 C 768.183 353.887, 751.551 392.378, 743.991 436.500 C 737.758 472.874, 737.190 528.378, 742.547 577.500 C 748.898 635.728, 762.307 683.831, 777.972 704.579 C 794.230 726.112, 816.971 736.396, 840.945 733.057 C 873.585 728.511, 897.554 701.430, 912.032 652.741 C 922.121 618.809, 927.266 580.439, 928.570 529.410 C 931.525 413.716, 907.806 343.138, 860.488 326.828 C 851.312 323.665, 836.321 322.415, 827.182 324.051 M 424.334 361.228 C 419.571 364.025, 414.125 373.927, 408.037 390.855 C 397.976 418.831, 395.514 423, 389.056 423 C 387.093 423, 384.054 422.589, 382.304 422.087 L 379.121 421.174 377.595 427.881 C 375.226 438.299, 373.208 452.293, 372.054 466.304 C 367.818 517.763, 377.999 616.492, 392.028 660 C 398.034 678.627, 406.979 693.869, 414.051 697.526 C 418.874 700.020, 425.037 699.411, 430.309 695.919 C 451.169 682.102, 465.180 643.318, 471.644 581.500 C 473.897 559.952, 474.234 491.770, 472.187 471.500 C 469.857 448.418, 465.097 417.793, 462.049 406.263 C 456.378 384.816, 448.129 368.761, 440.027 363.399 C 435.346 360.301, 427.710 359.245, 424.334 361.228 M 832.193 362.491 C 828.133 365.908, 822.236 377.727, 815.976 395 C 806.123 422.183, 804.963 423.682, 794.617 422.622 L 788.295 421.975 786.639 429.737 C 781.279 454.872, 779.204 486.197, 780.872 516.803 C 786.988 629.009, 805.921 698.961, 830.185 698.995 C 836.092 699.003, 838.844 697.401, 846.983 689.216 C 853.397 682.765, 855.486 679.778, 859.719 671 C 873.456 642.513, 880.416 605.944, 883.067 548.327 C 884.814 510.365, 882.082 464.247, 875.911 427.500 C 869.944 391.969, 859.017 367.546, 846.556 361.886 C 840.763 359.255, 835.790 359.464, 832.193 362.491" stroke="none" fill="#fc1444" fill-rule="evenodd"/></svg>